;Layer: Drill PTH
;EasyEDA v5.9.42, Sat, 09 Mar 2019 23:57:52 GMT
;162059df4c4b4fe6933ecd086f83df09
;Gerber Generator version 0.2
M48
METRIC,LZ,000.000
;Holesize 1 = 0.305 METRIC
T01C0.305
;Holesize 2 = 0.914 METRIC
T02C0.914
;Holesize 3 = 0.915 METRIC
T03C0.915
;Holesize 4 = 1.016 METRIC
T04C1.016
;Holesize 5 = 1.101 METRIC
T05C1.101
;Holesize 6 = 1.400 METRIC
T06C1.400
;Holesize 7 = 2.301 METRIC
T07C2.301
%
G05
G90
T01
X+035670Y+033412
X+035770Y+029712
X+028370Y+029712
X+031800Y+034800
X+026070Y+037012
X+028370Y+033412
X+021070Y+035412
X+054470Y+036412
X+037001Y+009498
X+013800Y+028000
X+020400Y+017600
X+042621Y+021512
X+037699Y+019499
X+042599Y+017499
X+015199Y+021400
X+042599Y+019199
X+051500Y+009100
T02
X+049769Y+051412
X+049769Y+048862
X+049769Y+046313
X+049769Y+054000
T03
X+011800Y+030600
X+011800Y+033140
X+009514Y+033140
X+009514Y+030600
X+024711Y+057724
X+022171Y+057724
X+019631Y+057724
X+017091Y+057724
T04
X+042869Y+038712
X+042869Y+041252
X+042869Y+043792
X+042869Y+046332
X+005169Y+010212
X+005169Y+012752
X+005169Y+015292
X+005169Y+017832
T05
X+002692Y+052324
X+002692Y+047724
T06
X+005192Y+046824
X+005292Y+053424
T07
X+006720Y+025774
X+006720Y+037966
M30
