G04 Layer: TopPasteMaskLayer*
G04 EasyEDA v5.9.42, Sat, 09 Mar 2019 23:57:52 GMT*
G04 162059df4c4b4fe6933ecd086f83df09*
G04 Gerber Generator version 0.2*
G04 Scale: 100 percent, Rotated: No, Reflected: No *
G04 Dimensions in millimeters *
G04 leading zeros omitted , absolute positions ,3 integer and 3 decimal *
%FSLAX33Y33*%
%MOMM*%
G90*
G71D02*

%ADD14C,0.599999*%
%ADD16R,1.250010X0.699999*%
%ADD17R,2.499995X1.099998*%
%ADD18R,4.013200X2.006600*%
%ADD19R,1.295400X2.006600*%
%ADD20R,1.799996X1.599997*%
%ADD21R,1.600200X1.800860*%
%ADD22R,1.800860X1.600200*%

%LPD*%
G54D14*
G01X33669Y44211D02*
G01X33669Y45413D01*
G01X32399Y44211D02*
G01X32399Y45413D01*
G01X31129Y44211D02*
G01X31129Y45413D01*
G01X29859Y44211D02*
G01X29859Y45413D01*
G01X28589Y44211D02*
G01X28589Y45413D01*
G01X27319Y44211D02*
G01X27319Y45413D01*
G01X26049Y44211D02*
G01X26049Y45413D01*
G01X24779Y44211D02*
G01X24779Y45413D01*
G01X33669Y38268D02*
G01X33669Y39469D01*
G01X32399Y38268D02*
G01X32399Y39469D01*
G01X31129Y38268D02*
G01X31129Y39469D01*
G01X29859Y38268D02*
G01X29859Y39469D01*
G01X28589Y38268D02*
G01X28589Y39469D01*
G01X27319Y38268D02*
G01X27319Y39469D01*
G01X26049Y38268D02*
G01X26049Y39469D01*
G01X24779Y38268D02*
G01X24779Y39469D01*
G54D16*
G01X16570Y30512D03*
G01X19069Y31462D03*
G01X19069Y29562D03*
G54D17*
G01X40198Y23499D03*
G01X40198Y21500D03*
G01X40198Y19498D03*
G01X40198Y17499D03*
G01X40198Y15498D03*
G01X40198Y13499D03*
G01X40198Y11500D03*
G01X40198Y9498D03*
G01X24100Y23499D03*
G01X24100Y21500D03*
G01X24100Y19498D03*
G01X24100Y17499D03*
G01X24100Y15498D03*
G01X24100Y13499D03*
G01X24100Y11500D03*
G01X24100Y9498D03*
G54D18*
G01X54469Y28113D03*
G54D19*
G01X54469Y33955D03*
G01X56451Y33980D03*
G01X52412Y33980D03*
G54D20*
G01X54599Y4999D03*
G01X47599Y4999D03*
G54D21*
G01X51498Y15402D03*
G01X54292Y15402D03*
G01X51520Y11513D03*
G01X54314Y11513D03*
G01X20421Y21411D03*
G01X17627Y21411D03*
G54D22*
G01X45100Y28197D03*
G01X45100Y25403D03*
G01X39925Y58814D03*
G01X39925Y61608D03*
G54D21*
G01X21871Y47710D03*
G01X24665Y47710D03*
G54D16*
G01X16590Y34425D03*
G01X19090Y35375D03*
G01X19090Y33475D03*
G54D21*
G01X23667Y29613D03*
G01X26461Y29613D03*
G01X23591Y33522D03*
G01X26385Y33522D03*
G54D22*
G01X33497Y32300D03*
G01X33497Y29506D03*
G01X30495Y32300D03*
G01X30495Y29506D03*
G54D21*
G01X17698Y25500D03*
G01X20492Y25500D03*
G54D22*
G01X48418Y22112D03*
G01X48418Y19318D03*
G01X45095Y22100D03*
G01X45095Y19306D03*
M00*
M02*
