G04 Layer: TopSilkLayer*
G04 EasyEDA v5.9.42, Sat, 09 Mar 2019 23:57:52 GMT*
G04 162059df4c4b4fe6933ecd086f83df09*
G04 Gerber Generator version 0.2*
G04 Scale: 100 percent, Rotated: No, Reflected: No *
G04 Dimensions in millimeters *
G04 leading zeros omitted , absolute positions ,3 integer and 3 decimal *
%FSLAX33Y33*%
%MOMM*%
G90*
G71D02*

%ADD10C,0.254000*%
%ADD12C,0.399999*%
%ADD30C,0.200000*%
%ADD36C,0.100000*%

%LPD*%

%LPD*%
G36*
G01X52941Y22306D02*
G01X52891Y22311D01*
G01X52843Y22309D01*
G01X52800Y22300D01*
G01X52758Y22283D01*
G01X52721Y22262D01*
G01X52686Y22233D01*
G01X52651Y22195D01*
G01X52612Y22141D01*
G01X52567Y22071D01*
G01X52514Y21980D01*
G01X52450Y21866D01*
G01X52436Y21841D01*
G01X52418Y21809D01*
G01X52380Y21741D01*
G01X52356Y21697D01*
G01X52320Y21634D01*
G01X52280Y21561D01*
G01X52238Y21486D01*
G01X52194Y21408D01*
G01X52150Y21328D01*
G01X52109Y21254D01*
G01X52077Y21197D01*
G01X52063Y21172D01*
G01X52046Y21142D01*
G01X52026Y21106D01*
G01X52003Y21065D01*
G01X51978Y21021D01*
G01X51951Y20971D01*
G01X51921Y20918D01*
G01X51889Y20861D01*
G01X51856Y20800D01*
G01X51820Y20737D01*
G01X51783Y20670D01*
G01X51743Y20600D01*
G01X51703Y20528D01*
G01X51662Y20453D01*
G01X51619Y20377D01*
G01X51575Y20298D01*
G01X51522Y20202D01*
G01X51479Y20122D01*
G01X51447Y20057D01*
G01X51422Y20003D01*
G01X51405Y19958D01*
G01X51394Y19920D01*
G01X51389Y19885D01*
G01X51387Y19851D01*
G01X51399Y19767D01*
G01X51434Y19690D01*
G01X51486Y19625D01*
G01X51551Y19579D01*
G01X51563Y19574D01*
G01X51585Y19564D01*
G01X51609Y19556D01*
G01X51624Y19553D01*
G01X51640Y19550D01*
G01X51660Y19547D01*
G01X51683Y19545D01*
G01X51710Y19542D01*
G01X51743Y19541D01*
G01X51780Y19539D01*
G01X51825Y19538D01*
G01X51875Y19537D01*
G01X51933Y19536D01*
G01X51999Y19535D01*
G01X52157Y19535D01*
G01X52250Y19534D01*
G01X53523Y19534D01*
G01X53617Y19535D01*
G01X53775Y19535D01*
G01X53841Y19536D01*
G01X53899Y19537D01*
G01X53950Y19538D01*
G01X53993Y19539D01*
G01X54031Y19541D01*
G01X54063Y19542D01*
G01X54091Y19545D01*
G01X54114Y19547D01*
G01X54134Y19550D01*
G01X54151Y19553D01*
G01X54165Y19556D01*
G01X54189Y19564D01*
G01X54211Y19574D01*
G01X54223Y19579D01*
G01X54288Y19625D01*
G01X54340Y19690D01*
G01X54375Y19768D01*
G01X54387Y19851D01*
G01X54387Y19876D01*
G01X54384Y19900D01*
G01X54380Y19924D01*
G01X54373Y19951D01*
G01X54363Y19981D01*
G01X54347Y20017D01*
G01X54327Y20061D01*
G01X54300Y20113D01*
G01X54266Y20176D01*
G01X54224Y20252D01*
G01X54175Y20341D01*
G01X54116Y20448D01*
G01X54101Y20475D01*
G01X54080Y20511D01*
G01X54056Y20554D01*
G01X54029Y20602D01*
G01X54000Y20654D01*
G01X53970Y20708D01*
G01X53939Y20763D01*
G01X53909Y20817D01*
G01X53878Y20874D01*
G01X53845Y20931D01*
G01X53812Y20990D01*
G01X53779Y21051D01*
G01X53711Y21173D01*
G01X53676Y21234D01*
G01X53608Y21356D01*
G01X53542Y21474D01*
G01X53510Y21531D01*
G01X53480Y21586D01*
G01X53450Y21638D01*
G01X53422Y21689D01*
G01X53395Y21736D01*
G01X53371Y21781D01*
G01X53336Y21842D01*
G01X53298Y21911D01*
G01X53260Y21981D01*
G01X53221Y22049D01*
G01X53186Y22107D01*
G01X53152Y22157D01*
G01X53120Y22197D01*
G01X53088Y22230D01*
G01X53056Y22257D01*
G01X53024Y22277D01*
G01X52990Y22292D01*
G01X52941Y22306D01*
G37*

%LPC*%
G36*
G01X52915Y22085D02*
G01X52883Y22093D01*
G01X52851Y22083D01*
G01X52818Y22055D01*
G01X52797Y22027D01*
G01X52764Y21975D01*
G01X52723Y21908D01*
G01X52681Y21832D01*
G01X52637Y21754D01*
G01X52595Y21679D01*
G01X52560Y21616D01*
G01X52535Y21572D01*
G01X52509Y21525D01*
G01X52466Y21449D01*
G01X52414Y21356D01*
G01X52358Y21255D01*
G01X52322Y21190D01*
G01X52285Y21125D01*
G01X52248Y21059D01*
G01X52212Y20993D01*
G01X52175Y20927D01*
G01X52139Y20863D01*
G01X52104Y20799D01*
G01X52070Y20738D01*
G01X52037Y20679D01*
G01X52006Y20623D01*
G01X51976Y20570D01*
G01X51949Y20521D01*
G01X51924Y20476D01*
G01X51901Y20435D01*
G01X51881Y20400D01*
G01X51865Y20370D01*
G01X51773Y20206D01*
G01X51705Y20083D01*
G01X51657Y19992D01*
G01X51625Y19930D01*
G01X51608Y19887D01*
G01X51602Y19859D01*
G01X51605Y19839D01*
G01X51612Y19819D01*
G01X51615Y19810D01*
G01X51618Y19802D01*
G01X51621Y19795D01*
G01X51625Y19788D01*
G01X51630Y19782D01*
G01X51637Y19777D01*
G01X51647Y19773D01*
G01X51660Y19768D01*
G01X51677Y19765D01*
G01X51700Y19762D01*
G01X51728Y19759D01*
G01X51761Y19757D01*
G01X51802Y19755D01*
G01X51850Y19754D01*
G01X51906Y19753D01*
G01X51971Y19752D01*
G01X52046Y19751D01*
G01X52225Y19751D01*
G01X52332Y19750D01*
G01X53188Y19750D01*
G01X53317Y19751D01*
G01X53712Y19751D01*
G01X53784Y19752D01*
G01X53846Y19752D01*
G01X53899Y19753D01*
G01X53945Y19754D01*
G01X53983Y19754D01*
G01X54014Y19755D01*
G01X54040Y19757D01*
G01X54060Y19758D01*
G01X54077Y19759D01*
G01X54089Y19761D01*
G01X54098Y19763D01*
G01X54106Y19765D01*
G01X54111Y19767D01*
G01X54128Y19776D01*
G01X54142Y19787D01*
G01X54153Y19800D01*
G01X54161Y19816D01*
G01X54167Y19830D01*
G01X54170Y19844D01*
G01X54171Y19860D01*
G01X54167Y19880D01*
G01X54158Y19906D01*
G01X54144Y19939D01*
G01X54122Y19983D01*
G01X54093Y20039D01*
G01X54055Y20110D01*
G01X54007Y20197D01*
G01X53948Y20302D01*
G01X53877Y20428D01*
G01X53837Y20499D01*
G01X53795Y20574D01*
G01X53756Y20645D01*
G01X53724Y20702D01*
G01X53695Y20754D01*
G01X53664Y20809D01*
G01X53635Y20862D01*
G01X53611Y20904D01*
G01X53561Y20994D01*
G01X53524Y21060D01*
G01X53487Y21125D01*
G01X53440Y21212D01*
G01X53408Y21269D01*
G01X53376Y21325D01*
G01X53349Y21374D01*
G01X53329Y21409D01*
G01X53308Y21447D01*
G01X53276Y21505D01*
G01X53236Y21575D01*
G01X53195Y21650D01*
G01X53152Y21726D01*
G01X53108Y21805D01*
G01X53069Y21875D01*
G01X53039Y21928D01*
G01X53014Y21970D01*
G01X52990Y22009D01*
G01X52967Y22040D01*
G01X52949Y22061D01*
G01X52915Y22085D01*
G37*

%LPD*%
G36*
G01X52949Y20271D02*
G01X52887Y20284D01*
G01X52866Y20282D01*
G01X52845Y20278D01*
G01X52824Y20271D01*
G01X52805Y20262D01*
G01X52774Y20237D01*
G01X52748Y20203D01*
G01X52730Y20164D01*
G01X52724Y20126D01*
G01X52729Y20090D01*
G01X52745Y20053D01*
G01X52767Y20020D01*
G01X52792Y19995D01*
G01X52835Y19977D01*
G01X52887Y19970D01*
G01X52940Y19975D01*
G01X52980Y19991D01*
G01X53005Y20017D01*
G01X53028Y20053D01*
G01X53044Y20091D01*
G01X53050Y20126D01*
G01X53037Y20185D01*
G01X53001Y20236D01*
G01X52949Y20271D01*
G37*

%LPD*%
G36*
G01X52904Y21674D02*
G01X52884Y21677D01*
G01X52865Y21673D01*
G01X52839Y21661D01*
G01X52825Y21653D01*
G01X52812Y21642D01*
G01X52801Y21631D01*
G01X52793Y21621D01*
G01X52790Y21603D01*
G01X52788Y21566D01*
G01X52786Y21512D01*
G01X52784Y21444D01*
G01X52782Y21365D01*
G01X52781Y21277D01*
G01X52781Y20897D01*
G01X52782Y20809D01*
G01X52784Y20730D01*
G01X52786Y20662D01*
G01X52788Y20608D01*
G01X52790Y20571D01*
G01X52793Y20553D01*
G01X52801Y20543D01*
G01X52813Y20531D01*
G01X52827Y20520D01*
G01X52842Y20511D01*
G01X52863Y20502D01*
G01X52879Y20498D01*
G01X52896Y20499D01*
G01X52916Y20504D01*
G01X52932Y20511D01*
G01X52948Y20519D01*
G01X52963Y20530D01*
G01X52973Y20540D01*
G01X52979Y20550D01*
G01X52984Y20564D01*
G01X52988Y20589D01*
G01X52990Y20631D01*
G01X52992Y20696D01*
G01X52993Y20789D01*
G01X52993Y21327D01*
G01X52992Y21416D01*
G01X52991Y21487D01*
G01X52989Y21541D01*
G01X52986Y21581D01*
G01X52981Y21611D01*
G01X52975Y21631D01*
G01X52967Y21644D01*
G01X52957Y21653D01*
G01X52945Y21659D01*
G01X52930Y21665D01*
G01X52904Y21674D01*
G37*

%LPD*%
G54D10*
G01X4663Y52941D02*
G01X4663Y53436D01*
G01X5656Y53436D01*
G01X5656Y52941D01*
G01X2476Y47399D02*
G01X2476Y48097D01*
G01X2875Y48097D01*
G01X2875Y47399D01*
G01X2476Y51897D02*
G01X2476Y52598D01*
G01X2875Y52598D01*
G01X2875Y51897D01*
G01X4668Y46540D02*
G01X4668Y47033D01*
G01X5656Y47033D01*
G01X5656Y46540D01*
G01X41599Y45697D02*
G01X41599Y46967D01*
G01X41599Y46967D02*
G01X42234Y47602D01*
G01X43504Y47602D02*
G01X44139Y46967D01*
G01X42234Y42522D02*
G01X41599Y43157D01*
G01X41599Y43157D02*
G01X41599Y44427D01*
G01X41599Y44427D02*
G01X42234Y45062D01*
G01X43504Y45062D02*
G01X44139Y44427D01*
G01X44139Y44427D02*
G01X44139Y43157D01*
G01X44139Y43157D02*
G01X43504Y42522D01*
G01X41599Y45697D02*
G01X42234Y45062D01*
G01X43504Y45062D02*
G01X44139Y45697D01*
G01X44139Y46967D02*
G01X44139Y45697D01*
G01X41599Y38077D02*
G01X41599Y39347D01*
G01X41599Y39347D02*
G01X42234Y39982D01*
G01X43504Y39982D02*
G01X44139Y39347D01*
G01X42234Y39982D02*
G01X41599Y40617D01*
G01X41599Y40617D02*
G01X41599Y41887D01*
G01X41599Y41887D02*
G01X42234Y42522D01*
G01X43504Y42522D02*
G01X44139Y41887D01*
G01X44139Y41887D02*
G01X44139Y40617D01*
G01X44139Y40617D02*
G01X43504Y39982D01*
G01X42234Y37442D02*
G01X43504Y37442D01*
G01X41599Y38077D02*
G01X42234Y37442D01*
G01X43504Y37442D02*
G01X44139Y38077D01*
G01X44139Y39347D02*
G01X44139Y38077D01*
G01X42234Y47602D02*
G01X43504Y47602D01*
G01X17169Y31312D02*
G01X17169Y31972D01*
G01X17169Y31312D01*
G01X17169Y31972D01*
G01X17984Y31972D01*
G01X17984Y29052D02*
G01X17169Y29052D01*
G01X17169Y29712D01*
G54D30*
G01X18719Y30212D02*
G01X18719Y30812D01*
G54D10*
G01X24249Y43240D02*
G01X24249Y39986D01*
G01X34200Y39986D01*
G01X34200Y43669D01*
G01X24249Y43669D01*
G01X24249Y43240D01*
G01X4180Y25774D02*
G01X-3947Y25774D01*
G01X-3947Y37966D01*
G01X4180Y37966D01*
G01X2148Y37966D02*
G01X2148Y25774D01*
G01X9006Y37966D02*
G01X12816Y37966D01*
G01X12816Y25774D01*
G01X9006Y25774D01*
G01X30899Y2598D02*
G01X27099Y2598D01*
G01X37145Y7457D02*
G01X37145Y2631D01*
G01X36129Y2631D01*
G01X36129Y5425D01*
G01X35113Y5425D01*
G01X35113Y2631D01*
G01X34097Y2631D01*
G01X34097Y5425D01*
G01X33081Y5425D01*
G01X33081Y2631D01*
G01X32065Y2631D01*
G01X32065Y5425D01*
G01X31049Y5425D01*
G01X31049Y2631D01*
G01X24092Y25491D02*
G01X24092Y1361D01*
G01X40094Y1361D01*
G01X40094Y25491D01*
G01X24092Y25491D01*
G01X26198Y8298D02*
G01X28199Y8298D01*
G01X28199Y7198D01*
G01X26198Y7198D01*
G01X26198Y8298D01*
G01X26198Y23299D02*
G01X26198Y8999D01*
G01X38199Y8999D01*
G01X38199Y23299D01*
G01X38199Y23299D02*
G01X26198Y23299D01*
G01X57345Y35255D02*
G01X51498Y35255D01*
G01X51498Y26805D01*
G01X57370Y26805D01*
G01X57370Y35230D01*
G01X54100Y3250D02*
G01X48101Y3250D01*
G01X48101Y3250D02*
G01X48101Y6751D01*
G01X48101Y6751D02*
G01X54100Y6751D01*
G01X54100Y6751D02*
G01X54100Y3250D01*
G01X52599Y4500D02*
G01X49600Y4500D01*
G01X49600Y5501D01*
G01X52599Y5501D01*
G01X52599Y4500D01*
G01X54100Y4000D02*
G01X53100Y4000D01*
G01X53100Y6001D01*
G01X54100Y6001D01*
G01X48101Y4000D02*
G01X49102Y4000D01*
G01X49102Y6001D01*
G01X48101Y6001D01*
G01X52132Y16672D02*
G01X50354Y16672D01*
G01X50354Y14132D01*
G01X52132Y14132D01*
G01X53656Y14132D02*
G01X55434Y14132D01*
G01X55434Y16672D01*
G01X53656Y16672D01*
G01X52154Y12783D02*
G01X50376Y12783D01*
G01X50376Y10243D01*
G01X52154Y10243D01*
G01X53678Y10243D02*
G01X55456Y10243D01*
G01X55456Y12783D01*
G01X53678Y12783D01*
G01X19786Y20141D02*
G01X21564Y20141D01*
G01X21564Y22681D01*
G01X19786Y22681D01*
G01X18262Y22681D02*
G01X16484Y22681D01*
G01X16484Y20141D01*
G01X18262Y20141D01*
G01X46371Y27562D02*
G01X46371Y29340D01*
G01X43831Y29340D01*
G01X43831Y27562D01*
G01X43831Y26038D02*
G01X43831Y24260D01*
G01X46371Y24260D01*
G01X46371Y26038D01*
G01X38651Y59448D02*
G01X38651Y57670D01*
G01X41191Y57670D01*
G01X41191Y59448D01*
G01X41191Y60972D02*
G01X41191Y62750D01*
G01X38651Y62750D01*
G01X38651Y60972D01*
G01X22505Y48982D02*
G01X20727Y48982D01*
G01X20727Y46442D01*
G01X22505Y46442D01*
G01X24029Y46442D02*
G01X25807Y46442D01*
G01X25807Y48982D01*
G01X24029Y48982D01*
G01X17191Y35225D02*
G01X17191Y35884D01*
G01X17191Y35225D01*
G01X17191Y35884D01*
G01X18006Y35884D01*
G01X18006Y32964D02*
G01X17191Y32964D01*
G01X17191Y33624D01*
G54D30*
G01X18741Y34125D02*
G01X18741Y34724D01*
G54D10*
G01X24304Y30885D02*
G01X22526Y30885D01*
G01X22526Y28345D01*
G01X24304Y28345D01*
G01X25828Y28345D02*
G01X27606Y28345D01*
G01X27606Y30885D01*
G01X25828Y30885D01*
G01X24227Y34795D02*
G01X22449Y34795D01*
G01X22449Y32255D01*
G01X24227Y32255D01*
G01X25751Y32255D02*
G01X27529Y32255D01*
G01X27529Y34795D01*
G01X25751Y34795D01*
G01X34770Y31664D02*
G01X34770Y33442D01*
G01X32230Y33442D01*
G01X32230Y31664D01*
G01X32230Y30140D02*
G01X32230Y28362D01*
G01X34770Y28362D01*
G01X34770Y30140D01*
G01X31770Y31664D02*
G01X31770Y33442D01*
G01X29230Y33442D01*
G01X29230Y31664D01*
G01X29230Y30140D02*
G01X29230Y28362D01*
G01X31770Y28362D01*
G01X31770Y30140D01*
G01X3899Y17197D02*
G01X3899Y18467D01*
G01X3899Y18467D02*
G01X4534Y19102D01*
G01X5804Y19102D02*
G01X6439Y18467D01*
G01X4534Y14022D02*
G01X3899Y14657D01*
G01X3899Y14657D02*
G01X3899Y15927D01*
G01X3899Y15927D02*
G01X4534Y16562D01*
G01X5804Y16562D02*
G01X6439Y15927D01*
G01X6439Y15927D02*
G01X6439Y14657D01*
G01X6439Y14657D02*
G01X5804Y14022D01*
G01X3899Y17197D02*
G01X4534Y16562D01*
G01X5804Y16562D02*
G01X6439Y17197D01*
G01X6439Y18467D02*
G01X6439Y17197D01*
G01X3899Y9577D02*
G01X3899Y10847D01*
G01X3899Y10847D02*
G01X4534Y11482D01*
G01X5804Y11482D02*
G01X6439Y10847D01*
G01X4534Y11482D02*
G01X3899Y12117D01*
G01X3899Y12117D02*
G01X3899Y13387D01*
G01X3899Y13387D02*
G01X4534Y14022D01*
G01X5804Y14022D02*
G01X6439Y13387D01*
G01X6439Y13387D02*
G01X6439Y12117D01*
G01X6439Y12117D02*
G01X5804Y11482D01*
G01X4534Y8942D02*
G01X5804Y8942D01*
G01X3899Y9577D02*
G01X4534Y8942D01*
G01X5804Y8942D02*
G01X6439Y9577D01*
G01X6439Y10847D02*
G01X6439Y9577D01*
G01X4534Y19102D02*
G01X5804Y19102D01*
G01X18333Y26772D02*
G01X16555Y26772D01*
G01X16555Y24232D01*
G01X18333Y24232D01*
G01X19857Y24232D02*
G01X21635Y24232D01*
G01X21635Y26772D01*
G01X19857Y26772D01*
G01X49690Y21477D02*
G01X49690Y23255D01*
G01X47150Y23255D01*
G01X47150Y21477D01*
G01X47150Y19953D02*
G01X47150Y18175D01*
G01X49690Y18175D01*
G01X49690Y19953D01*
G01X46368Y21464D02*
G01X46368Y23242D01*
G01X43828Y23242D01*
G01X43828Y21464D01*
G01X43828Y19940D02*
G01X43828Y18162D01*
G01X46368Y18162D01*
G01X46368Y19940D01*

%LPD*%
G36*
G01X61872Y20432D02*
G01X61848Y20475D01*
G01X61810Y20457D01*
G01X61833Y20415D01*
G01X61854Y20372D01*
G01X61870Y20327D01*
G01X61884Y20281D01*
G01X61895Y20233D01*
G01X61903Y20186D01*
G01X61907Y20137D01*
G01X61909Y20089D01*
G01X61907Y20040D01*
G01X61903Y19992D01*
G01X61895Y19944D01*
G01X61885Y19897D01*
G01X61870Y19851D01*
G01X61854Y19806D01*
G01X61833Y19762D01*
G01X61810Y19721D01*
G01X61848Y19703D01*
G01X61872Y19746D01*
G01X61895Y19790D01*
G01X61914Y19836D01*
G01X61930Y19882D01*
G01X61943Y19931D01*
G01X61952Y19981D01*
G01X61958Y20034D01*
G01X61960Y20089D01*
G01X61958Y20144D01*
G01X61952Y20196D01*
G01X61943Y20246D01*
G01X61930Y20295D01*
G01X61914Y20342D01*
G01X61895Y20388D01*
G01X61872Y20432D01*
G37*

%LPD*%
G36*
G01X60372Y20457D02*
G01X60334Y20475D01*
G01X60310Y20432D01*
G01X60288Y20388D01*
G01X60269Y20342D01*
G01X60253Y20295D01*
G01X60240Y20246D01*
G01X60231Y20196D01*
G01X60224Y20144D01*
G01X60222Y20089D01*
G01X60224Y20034D01*
G01X60231Y19981D01*
G01X60240Y19931D01*
G01X60253Y19882D01*
G01X60269Y19836D01*
G01X60288Y19790D01*
G01X60310Y19746D01*
G01X60334Y19703D01*
G01X60372Y19721D01*
G01X60350Y19762D01*
G01X60331Y19806D01*
G01X60314Y19851D01*
G01X60300Y19897D01*
G01X60289Y19944D01*
G01X60282Y19992D01*
G01X60277Y20040D01*
G01X60276Y20089D01*
G01X60277Y20137D01*
G01X60282Y20186D01*
G01X60289Y20233D01*
G01X60300Y20281D01*
G01X60314Y20327D01*
G01X60331Y20372D01*
G01X60350Y20415D01*
G01X60372Y20457D01*
G37*

%LPD*%
G36*
G01X59055Y19937D02*
G01X59031Y19942D01*
G01X59013Y19938D01*
G01X58998Y19929D01*
G01X58987Y19915D01*
G01X58983Y19896D01*
G01X58987Y19877D01*
G01X58998Y19862D01*
G01X59013Y19853D01*
G01X59031Y19850D01*
G01X59035Y19850D01*
G01X59038Y19851D01*
G01X59041Y19853D01*
G01X59035Y19819D01*
G01X59019Y19790D01*
G01X58996Y19766D01*
G01X58965Y19749D01*
G01X58983Y19713D01*
G01X59026Y19738D01*
G01X59059Y19773D01*
G01X59080Y19815D01*
G01X59087Y19865D01*
G01X59083Y19897D01*
G01X59073Y19921D01*
G01X59055Y19937D01*
G37*

%LPD*%
G36*
G01X59392Y20412D02*
G01X59328Y20422D01*
G01X59284Y20416D01*
G01X59244Y20402D01*
G01X59208Y20381D01*
G01X59176Y20356D01*
G01X59209Y20315D01*
G01X59235Y20336D01*
G01X59263Y20354D01*
G01X59293Y20366D01*
G01X59326Y20371D01*
G01X59367Y20364D01*
G01X59398Y20345D01*
G01X59418Y20315D01*
G01X59425Y20277D01*
G01X59417Y20234D01*
G01X59390Y20199D01*
G01X59342Y20176D01*
G01X59267Y20168D01*
G01X59267Y20119D01*
G01X59350Y20111D01*
G01X59405Y20086D01*
G01X59436Y20050D01*
G01X59445Y20003D01*
G01X59437Y19957D01*
G01X59412Y19923D01*
G01X59375Y19901D01*
G01X59328Y19893D01*
G01X59283Y19899D01*
G01X59245Y19914D01*
G01X59213Y19935D01*
G01X59186Y19959D01*
G01X59156Y19919D01*
G01X59186Y19891D01*
G01X59224Y19866D01*
G01X59272Y19849D01*
G01X59331Y19843D01*
G01X59400Y19853D01*
G01X59456Y19885D01*
G01X59493Y19936D01*
G01X59506Y20003D01*
G01X59497Y20055D01*
G01X59472Y20097D01*
G01X59433Y20127D01*
G01X59387Y20145D01*
G01X59387Y20147D01*
G01X59428Y20167D01*
G01X59460Y20197D01*
G01X59481Y20235D01*
G01X59488Y20282D01*
G01X59476Y20341D01*
G01X59443Y20385D01*
G01X59392Y20412D01*
G37*

%LPD*%
G36*
G01X58770Y20412D02*
G01X58706Y20422D01*
G01X58660Y20416D01*
G01X58619Y20402D01*
G01X58583Y20381D01*
G01X58551Y20356D01*
G01X58584Y20315D01*
G01X58611Y20336D01*
G01X58639Y20354D01*
G01X58670Y20366D01*
G01X58703Y20371D01*
G01X58743Y20364D01*
G01X58774Y20345D01*
G01X58793Y20315D01*
G01X58800Y20277D01*
G01X58792Y20234D01*
G01X58765Y20199D01*
G01X58717Y20176D01*
G01X58643Y20168D01*
G01X58643Y20119D01*
G01X58725Y20111D01*
G01X58780Y20086D01*
G01X58811Y20050D01*
G01X58820Y20003D01*
G01X58812Y19957D01*
G01X58788Y19923D01*
G01X58751Y19901D01*
G01X58703Y19893D01*
G01X58658Y19899D01*
G01X58621Y19914D01*
G01X58589Y19935D01*
G01X58564Y19959D01*
G01X58531Y19919D01*
G01X58561Y19891D01*
G01X58600Y19866D01*
G01X58649Y19849D01*
G01X58709Y19843D01*
G01X58777Y19853D01*
G01X58832Y19885D01*
G01X58868Y19936D01*
G01X58881Y20003D01*
G01X58872Y20055D01*
G01X58847Y20097D01*
G01X58810Y20127D01*
G01X58764Y20145D01*
G01X58764Y20147D01*
G01X58805Y20167D01*
G01X58836Y20197D01*
G01X58856Y20235D01*
G01X58864Y20282D01*
G01X58852Y20341D01*
G01X58819Y20385D01*
G01X58770Y20412D01*
G37*

%LPD*%
G36*
G01X55405Y20416D02*
G01X55351Y20422D01*
G01X55298Y20417D01*
G01X55250Y20401D01*
G01X55206Y20377D01*
G01X55170Y20344D01*
G01X55140Y20302D01*
G01X55118Y20252D01*
G01X55104Y20196D01*
G01X55099Y20132D01*
G01X55104Y20068D01*
G01X55118Y20011D01*
G01X55139Y19961D01*
G01X55168Y19920D01*
G01X55204Y19886D01*
G01X55246Y19862D01*
G01X55294Y19848D01*
G01X55346Y19843D01*
G01X55400Y19847D01*
G01X55447Y19861D01*
G01X55487Y19881D01*
G01X55518Y19906D01*
G01X55518Y20137D01*
G01X55338Y20137D01*
G01X55338Y20086D01*
G01X55460Y20086D01*
G01X55460Y19934D01*
G01X55440Y19919D01*
G01X55413Y19908D01*
G01X55384Y19901D01*
G01X55353Y19898D01*
G01X55272Y19915D01*
G01X55213Y19962D01*
G01X55175Y20036D01*
G01X55163Y20132D01*
G01X55176Y20230D01*
G01X55215Y20303D01*
G01X55274Y20350D01*
G01X55353Y20366D01*
G01X55393Y20361D01*
G01X55426Y20350D01*
G01X55453Y20332D01*
G01X55475Y20313D01*
G01X55511Y20353D01*
G01X55483Y20378D01*
G01X55448Y20400D01*
G01X55405Y20416D01*
G37*

%LPD*%
G36*
G01X61472Y20412D02*
G01X61335Y20412D01*
G01X61335Y19853D01*
G01X61475Y19853D01*
G01X61535Y19857D01*
G01X61587Y19872D01*
G01X61632Y19895D01*
G01X61668Y19928D01*
G01X61697Y19968D01*
G01X61717Y20016D01*
G01X61730Y20072D01*
G01X61734Y20135D01*
G01X61730Y20197D01*
G01X61717Y20252D01*
G01X61697Y20299D01*
G01X61668Y20339D01*
G01X61631Y20370D01*
G01X61586Y20393D01*
G01X61533Y20406D01*
G01X61472Y20412D01*
G37*

%LPC*%
G36*
G01X61467Y20358D02*
G01X61398Y20358D01*
G01X61398Y19904D01*
G01X61467Y19904D01*
G01X61515Y19908D01*
G01X61556Y19919D01*
G01X61591Y19939D01*
G01X61619Y19966D01*
G01X61640Y19999D01*
G01X61656Y20038D01*
G01X61665Y20084D01*
G01X61668Y20135D01*
G01X61665Y20185D01*
G01X61656Y20230D01*
G01X61640Y20268D01*
G01X61619Y20300D01*
G01X61591Y20325D01*
G01X61556Y20343D01*
G01X61515Y20354D01*
G01X61467Y20358D01*
G37*

%LPD*%
G36*
G01X61208Y20412D02*
G01X60890Y20412D01*
G01X60890Y19853D01*
G01X61216Y19853D01*
G01X61216Y19906D01*
G01X60954Y19906D01*
G01X60954Y20119D01*
G01X61167Y20119D01*
G01X61167Y20173D01*
G01X60954Y20173D01*
G01X60954Y20358D01*
G01X61208Y20358D01*
G01X61208Y20412D01*
G37*

%LPD*%
G36*
G01X60545Y20412D02*
G01X60481Y20412D01*
G01X60481Y19853D01*
G01X60791Y19853D01*
G01X60791Y19906D01*
G01X60545Y19906D01*
G01X60545Y20412D01*
G37*

%LPD*%
G36*
G01X59618Y20412D02*
G01X59552Y20412D01*
G01X59730Y19853D01*
G01X59803Y19853D01*
G01X59981Y20412D01*
G01X59918Y20412D01*
G01X59826Y20102D01*
G01X59812Y20054D01*
G01X59798Y20010D01*
G01X59785Y19966D01*
G01X59770Y19919D01*
G01X59768Y19919D01*
G01X59753Y19966D01*
G01X59739Y20010D01*
G01X59726Y20054D01*
G01X59712Y20102D01*
G01X59618Y20412D01*
G37*

%LPD*%
G36*
G01X58033Y20412D02*
G01X57896Y20412D01*
G01X57896Y19853D01*
G01X58035Y19853D01*
G01X58095Y19857D01*
G01X58146Y19872D01*
G01X58190Y19895D01*
G01X58227Y19928D01*
G01X58255Y19968D01*
G01X58276Y20016D01*
G01X58288Y20072D01*
G01X58292Y20135D01*
G01X58288Y20197D01*
G01X58276Y20252D01*
G01X58255Y20299D01*
G01X58226Y20339D01*
G01X58190Y20370D01*
G01X58145Y20393D01*
G01X58093Y20406D01*
G01X58033Y20412D01*
G37*

%LPC*%
G36*
G01X58028Y20358D02*
G01X57959Y20358D01*
G01X57959Y19904D01*
G01X58028Y19904D01*
G01X58075Y19908D01*
G01X58116Y19919D01*
G01X58151Y19939D01*
G01X58179Y19966D01*
G01X58201Y19999D01*
G01X58216Y20038D01*
G01X58225Y20084D01*
G01X58229Y20135D01*
G01X58225Y20185D01*
G01X58216Y20230D01*
G01X58201Y20268D01*
G01X58179Y20300D01*
G01X58151Y20325D01*
G01X58116Y20343D01*
G01X58075Y20354D01*
G01X58028Y20358D01*
G37*

%LPD*%
G36*
G01X57413Y20412D02*
G01X57347Y20412D01*
G01X57347Y19853D01*
G01X57408Y19853D01*
G01X57408Y20201D01*
G01X57406Y20243D01*
G01X57400Y20328D01*
G01X57403Y20328D01*
G01X57464Y20213D01*
G01X57675Y19853D01*
G01X57738Y19853D01*
G01X57738Y20412D01*
G01X57680Y20412D01*
G01X57680Y20109D01*
G01X57681Y20065D01*
G01X57683Y20020D01*
G01X57687Y19934D01*
G01X57685Y19934D01*
G01X57624Y20048D01*
G01X57413Y20412D01*
G37*

%LPD*%
G36*
G01X57075Y20412D02*
G01X57007Y20412D01*
G01X56816Y19853D01*
G01X56880Y19853D01*
G01X56936Y20028D01*
G01X57144Y20028D01*
G01X57200Y19853D01*
G01X57268Y19853D01*
G01X57075Y20412D01*
G37*

%LPC*%
G36*
G01X57042Y20358D02*
G01X57037Y20358D01*
G01X57024Y20309D01*
G01X56996Y20215D01*
G01X56981Y20168D01*
G01X56953Y20079D01*
G01X57129Y20079D01*
G01X57101Y20168D01*
G01X57085Y20215D01*
G01X57070Y20262D01*
G01X57056Y20309D01*
G01X57042Y20358D01*
G37*

%LPD*%
G36*
G01X56336Y20412D02*
G01X56199Y20412D01*
G01X56199Y19853D01*
G01X56339Y19853D01*
G01X56399Y19857D01*
G01X56451Y19872D01*
G01X56496Y19895D01*
G01X56532Y19928D01*
G01X56561Y19968D01*
G01X56582Y20016D01*
G01X56594Y20072D01*
G01X56598Y20135D01*
G01X56594Y20197D01*
G01X56582Y20252D01*
G01X56561Y20299D01*
G01X56532Y20339D01*
G01X56495Y20370D01*
G01X56450Y20393D01*
G01X56397Y20406D01*
G01X56336Y20412D01*
G37*

%LPC*%
G36*
G01X56331Y20358D02*
G01X56263Y20358D01*
G01X56263Y19904D01*
G01X56331Y19904D01*
G01X56379Y19908D01*
G01X56421Y19919D01*
G01X56455Y19939D01*
G01X56483Y19966D01*
G01X56504Y19999D01*
G01X56520Y20038D01*
G01X56529Y20084D01*
G01X56532Y20135D01*
G01X56529Y20185D01*
G01X56520Y20230D01*
G01X56504Y20268D01*
G01X56483Y20300D01*
G01X56455Y20325D01*
G01X56421Y20343D01*
G01X56379Y20354D01*
G01X56331Y20358D01*
G37*

%LPD*%
G36*
G01X55716Y20412D02*
G01X55653Y20412D01*
G01X55653Y19853D01*
G01X55711Y19853D01*
G01X55711Y20201D01*
G01X55709Y20243D01*
G01X55704Y20328D01*
G01X55709Y20328D01*
G01X55770Y20213D01*
G01X55978Y19853D01*
G01X56044Y19853D01*
G01X56044Y20412D01*
G01X55983Y20412D01*
G01X55983Y20109D01*
G01X55984Y20065D01*
G01X55987Y20020D01*
G01X55993Y19934D01*
G01X55988Y19934D01*
G01X55927Y20048D01*
G01X55716Y20412D01*
G37*

%LPD*%
G36*
G01X60916Y22194D02*
G01X60868Y22200D01*
G01X60817Y22195D01*
G01X60771Y22179D01*
G01X60729Y22155D01*
G01X60693Y22122D01*
G01X60664Y22080D01*
G01X60643Y22030D01*
G01X60629Y21974D01*
G01X60624Y21910D01*
G01X60628Y21846D01*
G01X60642Y21789D01*
G01X60663Y21739D01*
G01X60692Y21698D01*
G01X60727Y21664D01*
G01X60768Y21640D01*
G01X60813Y21626D01*
G01X60862Y21621D01*
G01X60914Y21626D01*
G01X60959Y21641D01*
G01X60998Y21666D01*
G01X61033Y21702D01*
G01X60997Y21740D01*
G01X60970Y21713D01*
G01X60939Y21693D01*
G01X60904Y21681D01*
G01X60865Y21676D01*
G01X60791Y21693D01*
G01X60735Y21740D01*
G01X60700Y21814D01*
G01X60687Y21910D01*
G01X60700Y22008D01*
G01X60737Y22081D01*
G01X60793Y22128D01*
G01X60868Y22144D01*
G01X60904Y22140D01*
G01X60935Y22129D01*
G01X60962Y22111D01*
G01X60984Y22091D01*
G01X61020Y22131D01*
G01X60992Y22157D01*
G01X60957Y22178D01*
G01X60916Y22194D01*
G37*

%LPD*%
G36*
G01X58807Y22195D02*
G01X58757Y22200D01*
G01X58708Y22195D01*
G01X58662Y22180D01*
G01X58623Y22156D01*
G01X58589Y22123D01*
G01X58561Y22081D01*
G01X58540Y22033D01*
G01X58528Y21976D01*
G01X58523Y21913D01*
G01X58528Y21849D01*
G01X58540Y21792D01*
G01X58561Y21742D01*
G01X58589Y21700D01*
G01X58623Y21666D01*
G01X58662Y21641D01*
G01X58708Y21626D01*
G01X58757Y21621D01*
G01X58807Y21626D01*
G01X58853Y21641D01*
G01X58893Y21666D01*
G01X58928Y21700D01*
G01X58955Y21742D01*
G01X58976Y21792D01*
G01X58989Y21849D01*
G01X58993Y21913D01*
G01X58989Y21976D01*
G01X58976Y22033D01*
G01X58955Y22081D01*
G01X58928Y22123D01*
G01X58893Y22156D01*
G01X58853Y22180D01*
G01X58807Y22195D01*
G37*

%LPC*%
G36*
G01X58828Y22128D02*
G01X58757Y22144D01*
G01X58688Y22128D01*
G01X58634Y22081D01*
G01X58599Y22009D01*
G01X58587Y21913D01*
G01X58599Y21815D01*
G01X58634Y21740D01*
G01X58688Y21693D01*
G01X58757Y21676D01*
G01X58828Y21693D01*
G01X58882Y21740D01*
G01X58917Y21815D01*
G01X58930Y21913D01*
G01X58917Y22009D01*
G01X58882Y22081D01*
G01X58828Y22128D01*
G37*

%LPD*%
G36*
G01X58355Y22194D02*
G01X58307Y22200D01*
G01X58256Y22195D01*
G01X58209Y22179D01*
G01X58167Y22155D01*
G01X58131Y22122D01*
G01X58102Y22080D01*
G01X58080Y22030D01*
G01X58066Y21974D01*
G01X58061Y21910D01*
G01X58066Y21846D01*
G01X58079Y21789D01*
G01X58101Y21739D01*
G01X58130Y21698D01*
G01X58166Y21664D01*
G01X58207Y21640D01*
G01X58252Y21626D01*
G01X58302Y21621D01*
G01X58353Y21626D01*
G01X58398Y21641D01*
G01X58438Y21666D01*
G01X58472Y21702D01*
G01X58437Y21740D01*
G01X58409Y21713D01*
G01X58377Y21693D01*
G01X58343Y21681D01*
G01X58305Y21676D01*
G01X58231Y21693D01*
G01X58175Y21740D01*
G01X58140Y21814D01*
G01X58127Y21910D01*
G01X58140Y22008D01*
G01X58176Y22081D01*
G01X58233Y22128D01*
G01X58307Y22144D01*
G01X58342Y22140D01*
G01X58372Y22129D01*
G01X58400Y22111D01*
G01X58424Y22091D01*
G01X58457Y22131D01*
G01X58430Y22157D01*
G01X58396Y22178D01*
G01X58355Y22194D01*
G37*

%LPD*%
G36*
G01X57184Y22195D02*
G01X57134Y22200D01*
G01X57083Y22195D01*
G01X57038Y22180D01*
G01X56998Y22156D01*
G01X56964Y22123D01*
G01X56936Y22081D01*
G01X56915Y22033D01*
G01X56902Y21976D01*
G01X56898Y21913D01*
G01X56902Y21849D01*
G01X56915Y21792D01*
G01X56936Y21742D01*
G01X56964Y21700D01*
G01X56998Y21666D01*
G01X57038Y21641D01*
G01X57083Y21626D01*
G01X57134Y21621D01*
G01X57184Y21626D01*
G01X57229Y21641D01*
G01X57269Y21666D01*
G01X57303Y21700D01*
G01X57331Y21742D01*
G01X57353Y21792D01*
G01X57365Y21849D01*
G01X57370Y21913D01*
G01X57365Y21976D01*
G01X57353Y22033D01*
G01X57331Y22081D01*
G01X57303Y22123D01*
G01X57269Y22156D01*
G01X57229Y22180D01*
G01X57184Y22195D01*
G37*

%LPC*%
G36*
G01X57204Y22128D02*
G01X57134Y22144D01*
G01X57063Y22128D01*
G01X57010Y22081D01*
G01X56976Y22009D01*
G01X56964Y21913D01*
G01X56976Y21815D01*
G01X57010Y21740D01*
G01X57063Y21693D01*
G01X57134Y21676D01*
G01X57204Y21693D01*
G01X57258Y21740D01*
G01X57292Y21815D01*
G01X57304Y21913D01*
G01X57292Y22009D01*
G01X57258Y22081D01*
G01X57204Y22128D01*
G37*

%LPD*%
G36*
G01X55904Y22195D02*
G01X55854Y22200D01*
G01X55804Y22195D01*
G01X55759Y22180D01*
G01X55720Y22156D01*
G01X55685Y22123D01*
G01X55658Y22081D01*
G01X55637Y22033D01*
G01X55625Y21976D01*
G01X55620Y21913D01*
G01X55625Y21849D01*
G01X55637Y21792D01*
G01X55658Y21742D01*
G01X55685Y21700D01*
G01X55720Y21666D01*
G01X55759Y21641D01*
G01X55804Y21626D01*
G01X55854Y21621D01*
G01X55904Y21626D01*
G01X55950Y21641D01*
G01X55990Y21666D01*
G01X56024Y21700D01*
G01X56052Y21742D01*
G01X56073Y21792D01*
G01X56086Y21849D01*
G01X56090Y21913D01*
G01X56086Y21976D01*
G01X56073Y22033D01*
G01X56052Y22081D01*
G01X56024Y22123D01*
G01X55990Y22156D01*
G01X55950Y22180D01*
G01X55904Y22195D01*
G37*

%LPC*%
G36*
G01X55925Y22128D02*
G01X55854Y22144D01*
G01X55785Y22128D01*
G01X55731Y22081D01*
G01X55696Y22009D01*
G01X55683Y21913D01*
G01X55696Y21815D01*
G01X55731Y21740D01*
G01X55785Y21693D01*
G01X55854Y21676D01*
G01X55925Y21693D01*
G01X55979Y21740D01*
G01X56014Y21815D01*
G01X56026Y21913D01*
G01X56014Y22009D01*
G01X55979Y22081D01*
G01X55925Y22128D01*
G37*

%LPD*%
G36*
G01X61475Y22190D02*
G01X61071Y22190D01*
G01X61071Y22136D01*
G01X61241Y22136D01*
G01X61241Y21631D01*
G01X61304Y21631D01*
G01X61304Y22136D01*
G01X61475Y22136D01*
G01X61475Y22190D01*
G37*

%LPD*%
G36*
G01X60530Y22190D02*
G01X60210Y22190D01*
G01X60210Y21631D01*
G01X60537Y21631D01*
G01X60537Y21684D01*
G01X60273Y21684D01*
G01X60273Y21897D01*
G01X60489Y21897D01*
G01X60489Y21951D01*
G01X60273Y21951D01*
G01X60273Y22136D01*
G01X60530Y22136D01*
G01X60530Y22190D01*
G37*

%LPD*%
G36*
G01X59730Y22190D02*
G01X59664Y22190D01*
G01X59664Y21631D01*
G01X59722Y21631D01*
G01X59722Y21979D01*
G01X59721Y22021D01*
G01X59718Y22064D01*
G01X59714Y22106D01*
G01X59719Y22106D01*
G01X59780Y21991D01*
G01X59989Y21631D01*
G01X60055Y21631D01*
G01X60055Y22190D01*
G01X59996Y22190D01*
G01X59996Y21887D01*
G01X59997Y21843D01*
G01X59998Y21798D01*
G01X60004Y21712D01*
G01X59999Y21712D01*
G01X59940Y21826D01*
G01X59730Y22190D01*
G37*

%LPD*%
G36*
G01X59181Y22190D02*
G01X59118Y22190D01*
G01X59118Y21631D01*
G01X59176Y21631D01*
G01X59176Y21936D01*
G01X59175Y21979D01*
G01X59173Y22021D01*
G01X59168Y22106D01*
G01X59173Y22106D01*
G01X59234Y21991D01*
G01X59443Y21631D01*
G01X59509Y21631D01*
G01X59509Y22190D01*
G01X59448Y22190D01*
G01X59448Y21887D01*
G01X59449Y21843D01*
G01X59451Y21798D01*
G01X59455Y21712D01*
G01X59453Y21712D01*
G01X59392Y21826D01*
G01X59181Y22190D01*
G37*

%LPD*%
G36*
G01X57825Y22190D02*
G01X57418Y22190D01*
G01X57418Y22136D01*
G01X57588Y22136D01*
G01X57588Y21631D01*
G01X57652Y21631D01*
G01X57652Y22136D01*
G01X57825Y22136D01*
G01X57825Y22190D01*
G37*

%LPD*%
G36*
G01X56448Y22190D02*
G01X56382Y22190D01*
G01X56382Y21631D01*
G01X56443Y21631D01*
G01X56443Y21936D01*
G01X56442Y21979D01*
G01X56440Y22021D01*
G01X56435Y22106D01*
G01X56438Y22106D01*
G01X56499Y21991D01*
G01X56710Y21631D01*
G01X56776Y21631D01*
G01X56776Y22190D01*
G01X56715Y22190D01*
G01X56715Y21887D01*
G01X56716Y21843D01*
G01X56718Y21798D01*
G01X56722Y21712D01*
G01X56720Y21712D01*
G01X56659Y21826D01*
G01X56448Y22190D01*
G37*

%LPD*%
G36*
G01X55269Y22190D02*
G01X55132Y22190D01*
G01X55132Y21631D01*
G01X55269Y21631D01*
G01X55329Y21635D01*
G01X55382Y21650D01*
G01X55426Y21673D01*
G01X55463Y21706D01*
G01X55491Y21746D01*
G01X55512Y21794D01*
G01X55524Y21850D01*
G01X55528Y21913D01*
G01X55524Y21975D01*
G01X55512Y22030D01*
G01X55491Y22077D01*
G01X55463Y22117D01*
G01X55426Y22148D01*
G01X55382Y22171D01*
G01X55329Y22184D01*
G01X55269Y22190D01*
G37*

%LPC*%
G36*
G01X55262Y22136D02*
G01X55196Y22136D01*
G01X55196Y21682D01*
G01X55262Y21682D01*
G01X55310Y21686D01*
G01X55352Y21697D01*
G01X55386Y21717D01*
G01X55415Y21744D01*
G01X55437Y21777D01*
G01X55453Y21816D01*
G01X55462Y21862D01*
G01X55465Y21913D01*
G01X55462Y21963D01*
G01X55453Y22008D01*
G01X55437Y22046D01*
G01X55415Y22078D01*
G01X55386Y22103D01*
G01X55352Y22121D01*
G01X55310Y22132D01*
G01X55262Y22136D01*
G37*

%LPD*%

%LPD*%
G36*
G01X34127Y16393D02*
G01X34063Y16399D01*
G01X34019Y16397D01*
G01X33976Y16388D01*
G01X33934Y16372D01*
G01X33896Y16351D01*
G01X33859Y16322D01*
G01X33826Y16285D01*
G01X33796Y16241D01*
G01X33771Y16190D01*
G01X33751Y16130D01*
G01X33735Y16061D01*
G01X33726Y15983D01*
G01X33723Y15896D01*
G01X33725Y15824D01*
G01X33733Y15758D01*
G01X33745Y15697D01*
G01X33762Y15643D01*
G01X33784Y15595D01*
G01X33808Y15554D01*
G01X33837Y15518D01*
G01X33870Y15489D01*
G01X33906Y15466D01*
G01X33945Y15450D01*
G01X33986Y15440D01*
G01X34030Y15437D01*
G01X34082Y15442D01*
G01X34131Y15459D01*
G01X34175Y15485D01*
G01X34214Y15520D01*
G01X34246Y15564D01*
G01X34271Y15615D01*
G01X34286Y15673D01*
G01X34292Y15736D01*
G01X34287Y15806D01*
G01X34274Y15865D01*
G01X34252Y15915D01*
G01X34222Y15956D01*
G01X34185Y15988D01*
G01X34142Y16011D01*
G01X34091Y16024D01*
G01X34035Y16029D01*
G01X33978Y16021D01*
G01X33921Y15999D01*
G01X33867Y15964D01*
G01X33819Y15917D01*
G01X33826Y16019D01*
G01X33841Y16105D01*
G01X33865Y16174D01*
G01X33896Y16228D01*
G01X33932Y16268D01*
G01X33974Y16295D01*
G01X34020Y16311D01*
G01X34068Y16316D01*
G01X34108Y16311D01*
G01X34147Y16296D01*
G01X34184Y16274D01*
G01X34215Y16244D01*
G01X34274Y16308D01*
G01X34233Y16345D01*
G01X34184Y16374D01*
G01X34127Y16393D01*
G37*

%LPC*%
G36*
G01X34095Y15937D02*
G01X34017Y15952D01*
G01X33972Y15946D01*
G01X33923Y15924D01*
G01X33873Y15885D01*
G01X33824Y15828D01*
G01X33831Y15759D01*
G01X33844Y15697D01*
G01X33861Y15645D01*
G01X33885Y15601D01*
G01X33914Y15566D01*
G01X33948Y15541D01*
G01X33986Y15526D01*
G01X34030Y15521D01*
G01X34094Y15537D01*
G01X34145Y15581D01*
G01X34180Y15650D01*
G01X34192Y15736D01*
G01X34182Y15825D01*
G01X34149Y15893D01*
G01X34095Y15937D01*
G37*

%LPD*%
G36*
G01X33432Y16393D02*
G01X33367Y16399D01*
G01X33323Y16397D01*
G01X33280Y16388D01*
G01X33238Y16372D01*
G01X33199Y16351D01*
G01X33162Y16322D01*
G01X33129Y16285D01*
G01X33099Y16241D01*
G01X33073Y16190D01*
G01X33053Y16130D01*
G01X33037Y16061D01*
G01X33027Y15983D01*
G01X33024Y15896D01*
G01X33027Y15824D01*
G01X33034Y15758D01*
G01X33047Y15697D01*
G01X33064Y15643D01*
G01X33086Y15595D01*
G01X33111Y15554D01*
G01X33140Y15518D01*
G01X33172Y15489D01*
G01X33209Y15466D01*
G01X33247Y15450D01*
G01X33288Y15440D01*
G01X33331Y15437D01*
G01X33383Y15442D01*
G01X33432Y15459D01*
G01X33477Y15485D01*
G01X33515Y15520D01*
G01X33548Y15564D01*
G01X33572Y15615D01*
G01X33587Y15673D01*
G01X33593Y15736D01*
G01X33588Y15806D01*
G01X33575Y15865D01*
G01X33554Y15915D01*
G01X33525Y15956D01*
G01X33488Y15988D01*
G01X33445Y16011D01*
G01X33395Y16024D01*
G01X33339Y16029D01*
G01X33281Y16021D01*
G01X33224Y15999D01*
G01X33171Y15964D01*
G01X33123Y15917D01*
G01X33130Y16019D01*
G01X33146Y16105D01*
G01X33169Y16174D01*
G01X33199Y16228D01*
G01X33236Y16268D01*
G01X33277Y16295D01*
G01X33322Y16311D01*
G01X33370Y16316D01*
G01X33411Y16311D01*
G01X33451Y16296D01*
G01X33488Y16274D01*
G01X33519Y16244D01*
G01X33578Y16308D01*
G01X33536Y16345D01*
G01X33487Y16374D01*
G01X33432Y16393D01*
G37*

%LPC*%
G36*
G01X33399Y15937D02*
G01X33321Y15952D01*
G01X33275Y15946D01*
G01X33225Y15924D01*
G01X33175Y15885D01*
G01X33126Y15828D01*
G01X33133Y15759D01*
G01X33146Y15697D01*
G01X33164Y15645D01*
G01X33188Y15601D01*
G01X33216Y15566D01*
G01X33250Y15541D01*
G01X33288Y15526D01*
G01X33331Y15521D01*
G01X33397Y15537D01*
G01X33449Y15581D01*
G01X33484Y15650D01*
G01X33497Y15736D01*
G01X33486Y15825D01*
G01X33453Y15893D01*
G01X33399Y15937D01*
G37*

%LPD*%
G36*
G01X31970Y16395D02*
G01X31914Y16399D01*
G01X31862Y16395D01*
G01X31815Y16382D01*
G01X31772Y16362D01*
G01X31735Y16334D01*
G01X31705Y16299D01*
G01X31682Y16259D01*
G01X31668Y16213D01*
G01X31663Y16163D01*
G01X31673Y16096D01*
G01X31700Y16038D01*
G01X31740Y15989D01*
G01X31787Y15950D01*
G01X31787Y15945D01*
G01X31725Y15902D01*
G01X31670Y15845D01*
G01X31632Y15773D01*
G01X31617Y15686D01*
G01X31623Y15634D01*
G01X31639Y15586D01*
G01X31665Y15543D01*
G01X31700Y15507D01*
G01X31743Y15477D01*
G01X31794Y15456D01*
G01X31850Y15442D01*
G01X31912Y15437D01*
G01X31973Y15442D01*
G01X32028Y15456D01*
G01X32077Y15478D01*
G01X32119Y15507D01*
G01X32152Y15542D01*
G01X32178Y15583D01*
G01X32193Y15628D01*
G01X32199Y15675D01*
G01X32185Y15761D01*
G01X32150Y15828D01*
G01X32100Y15881D01*
G01X32041Y15922D01*
G01X32041Y15927D01*
G01X32083Y15967D01*
G01X32123Y16019D01*
G01X32153Y16082D01*
G01X32166Y16153D01*
G01X32161Y16205D01*
G01X32148Y16252D01*
G01X32127Y16294D01*
G01X32099Y16330D01*
G01X32063Y16359D01*
G01X32020Y16381D01*
G01X31970Y16395D01*
G37*

%LPC*%
G36*
G01X31894Y15892D02*
G01X31846Y15912D01*
G01X31790Y15870D01*
G01X31747Y15819D01*
G01X31721Y15759D01*
G01X31711Y15693D01*
G01X31726Y15623D01*
G01X31768Y15566D01*
G01X31832Y15529D01*
G01X31912Y15515D01*
G01X31988Y15528D01*
G01X32047Y15562D01*
G01X32086Y15615D01*
G01X32100Y15681D01*
G01X32094Y15725D01*
G01X32078Y15763D01*
G01X32054Y15796D01*
G01X32022Y15824D01*
G01X31984Y15849D01*
G01X31941Y15871D01*
G01X31894Y15892D01*
G37*
G36*
G01X31981Y16307D02*
G01X31912Y16321D01*
G01X31850Y16309D01*
G01X31802Y16277D01*
G01X31770Y16228D01*
G01X31759Y16163D01*
G01X31777Y16088D01*
G01X31825Y16033D01*
G01X31894Y15990D01*
G01X31975Y15955D01*
G01X32019Y15999D01*
G01X32051Y16046D01*
G01X32070Y16096D01*
G01X32077Y16148D01*
G01X32066Y16215D01*
G01X32033Y16270D01*
G01X31981Y16307D01*
G37*

%LPD*%
G36*
G01X30486Y16391D02*
G01X30405Y16399D01*
G01X30345Y16395D01*
G01X30291Y16382D01*
G01X30242Y16360D01*
G01X30200Y16331D01*
G01X30166Y16296D01*
G01X30140Y16255D01*
G01X30124Y16209D01*
G01X30118Y16158D01*
G01X30136Y16070D01*
G01X30180Y16004D01*
G01X30241Y15956D01*
G01X30309Y15922D01*
G01X30441Y15863D01*
G01X30504Y15833D01*
G01X30555Y15799D01*
G01X30589Y15754D01*
G01X30601Y15691D01*
G01X30587Y15625D01*
G01X30547Y15575D01*
G01X30483Y15542D01*
G01X30398Y15531D01*
G01X30325Y15539D01*
G01X30255Y15563D01*
G01X30192Y15599D01*
G01X30136Y15648D01*
G01X30073Y15576D01*
G01X30139Y15519D01*
G01X30215Y15474D01*
G01X30300Y15447D01*
G01X30395Y15437D01*
G01X30464Y15442D01*
G01X30525Y15458D01*
G01X30579Y15481D01*
G01X30624Y15513D01*
G01X30659Y15552D01*
G01X30686Y15597D01*
G01X30702Y15646D01*
G01X30708Y15698D01*
G01X30692Y15790D01*
G01X30651Y15858D01*
G01X30590Y15909D01*
G01X30515Y15947D01*
G01X30380Y16003D01*
G01X30326Y16029D01*
G01X30276Y16061D01*
G01X30239Y16105D01*
G01X30225Y16166D01*
G01X30238Y16225D01*
G01X30275Y16269D01*
G01X30332Y16298D01*
G01X30405Y16308D01*
G01X30468Y16302D01*
G01X30525Y16284D01*
G01X30576Y16256D01*
G01X30621Y16219D01*
G01X30675Y16288D01*
G01X30621Y16333D01*
G01X30558Y16368D01*
G01X30486Y16391D01*
G37*

%LPD*%
G36*
G01X32636Y16395D02*
G01X32577Y16399D01*
G01X32497Y16390D01*
G01X32427Y16363D01*
G01X32364Y16320D01*
G01X32305Y16265D01*
G01X32366Y16206D01*
G01X32409Y16250D01*
G01X32457Y16284D01*
G01X32509Y16307D01*
G01X32567Y16316D01*
G01X32644Y16301D01*
G01X32698Y16262D01*
G01X32731Y16201D01*
G01X32742Y16125D01*
G01X32739Y16084D01*
G01X32731Y16043D01*
G01X32717Y15999D01*
G01X32697Y15954D01*
G01X32671Y15907D01*
G01X32639Y15858D01*
G01X32600Y15807D01*
G01X32556Y15753D01*
G01X32505Y15698D01*
G01X32448Y15640D01*
G01X32384Y15579D01*
G01X32313Y15515D01*
G01X32313Y15455D01*
G01X32887Y15455D01*
G01X32887Y15543D01*
G01X32584Y15543D01*
G01X32546Y15542D01*
G01X32507Y15539D01*
G01X32470Y15536D01*
G01X32525Y15589D01*
G01X32577Y15641D01*
G01X32624Y15692D01*
G01X32667Y15743D01*
G01X32707Y15792D01*
G01X32742Y15842D01*
G01X32772Y15890D01*
G01X32797Y15939D01*
G01X32817Y15987D01*
G01X32832Y16035D01*
G01X32841Y16083D01*
G01X32844Y16130D01*
G01X32839Y16189D01*
G01X32825Y16241D01*
G01X32803Y16287D01*
G01X32772Y16326D01*
G01X32734Y16357D01*
G01X32688Y16381D01*
G01X32636Y16395D01*
G37*

%LPD*%
G36*
G01X31150Y16384D02*
G01X30893Y16384D01*
G01X30893Y15455D01*
G01X31000Y15455D01*
G01X31000Y15830D01*
G01X31157Y15830D01*
G01X31230Y15835D01*
G01X31296Y15848D01*
G01X31354Y15870D01*
G01X31404Y15901D01*
G01X31443Y15940D01*
G01X31473Y15989D01*
G01X31491Y16047D01*
G01X31498Y16115D01*
G01X31491Y16185D01*
G01X31473Y16242D01*
G01X31443Y16289D01*
G01X31403Y16325D01*
G01X31352Y16352D01*
G01X31293Y16370D01*
G01X31225Y16381D01*
G01X31150Y16384D01*
G37*

%LPC*%
G36*
G01X31137Y16298D02*
G01X31000Y16298D01*
G01X31000Y15917D01*
G01X31139Y15917D01*
G01X31199Y15920D01*
G01X31251Y15928D01*
G01X31294Y15943D01*
G01X31330Y15964D01*
G01X31358Y15991D01*
G01X31378Y16025D01*
G01X31389Y16067D01*
G01X31393Y16115D01*
G01X31389Y16163D01*
G01X31377Y16203D01*
G01X31357Y16234D01*
G01X31329Y16259D01*
G01X31293Y16277D01*
G01X31249Y16289D01*
G01X31197Y16296D01*
G01X31137Y16298D01*
G37*

%LPD*%
G36*
G01X29930Y16384D02*
G01X29400Y16384D01*
G01X29400Y15455D01*
G01X29943Y15455D01*
G01X29943Y15543D01*
G01X29506Y15543D01*
G01X29506Y15902D01*
G01X29862Y15902D01*
G01X29862Y15990D01*
G01X29506Y15990D01*
G01X29506Y16295D01*
G01X29930Y16295D01*
G01X29930Y16384D01*
G37*

%LPD*%

%LPD*%
G36*
G01X11058Y4920D02*
G01X11033Y4925D01*
G01X11009Y4920D01*
G01X10990Y4906D01*
G01X10977Y4885D01*
G01X10972Y4857D01*
G01X10977Y4831D01*
G01X10990Y4810D01*
G01X11009Y4798D01*
G01X11033Y4793D01*
G01X11058Y4798D01*
G01X11078Y4810D01*
G01X11091Y4831D01*
G01X11096Y4857D01*
G01X11091Y4885D01*
G01X11078Y4906D01*
G01X11058Y4920D01*
G37*

%LPD*%
G36*
G01X10686Y5551D02*
G01X10601Y5563D01*
G01X10542Y5556D01*
G01X10488Y5538D01*
G01X10440Y5510D01*
G01X10398Y5476D01*
G01X10443Y5420D01*
G01X10477Y5450D01*
G01X10514Y5475D01*
G01X10554Y5491D01*
G01X10598Y5497D01*
G01X10653Y5488D01*
G01X10694Y5462D01*
G01X10719Y5423D01*
G01X10728Y5372D01*
G01X10717Y5314D01*
G01X10682Y5267D01*
G01X10618Y5236D01*
G01X10520Y5225D01*
G01X10520Y5161D01*
G01X10629Y5150D01*
G01X10703Y5118D01*
G01X10743Y5069D01*
G01X10756Y5006D01*
G01X10744Y4947D01*
G01X10712Y4901D01*
G01X10662Y4872D01*
G01X10601Y4862D01*
G01X10540Y4869D01*
G01X10490Y4888D01*
G01X10448Y4915D01*
G01X10413Y4948D01*
G01X10370Y4895D01*
G01X10410Y4856D01*
G01X10462Y4824D01*
G01X10527Y4801D01*
G01X10606Y4793D01*
G01X10653Y4797D01*
G01X10697Y4807D01*
G01X10737Y4825D01*
G01X10772Y4849D01*
G01X10800Y4879D01*
G01X10821Y4915D01*
G01X10835Y4957D01*
G01X10840Y5004D01*
G01X10827Y5074D01*
G01X10793Y5129D01*
G01X10742Y5171D01*
G01X10680Y5194D01*
G01X10680Y5197D01*
G01X10734Y5225D01*
G01X10777Y5265D01*
G01X10804Y5316D01*
G01X10814Y5380D01*
G01X10798Y5458D01*
G01X10753Y5515D01*
G01X10686Y5551D01*
G37*

%LPD*%
G36*
G01X8679Y5555D02*
G01X8615Y5563D01*
G01X8547Y5556D01*
G01X8485Y5536D01*
G01X8429Y5503D01*
G01X8382Y5459D01*
G01X8343Y5404D01*
G01X8314Y5338D01*
G01X8296Y5262D01*
G01X8290Y5177D01*
G01X8296Y5092D01*
G01X8314Y5016D01*
G01X8342Y4951D01*
G01X8381Y4895D01*
G01X8428Y4852D01*
G01X8483Y4820D01*
G01X8544Y4800D01*
G01X8610Y4793D01*
G01X8678Y4800D01*
G01X8737Y4821D01*
G01X8789Y4854D01*
G01X8836Y4900D01*
G01X8790Y4953D01*
G01X8752Y4916D01*
G01X8711Y4889D01*
G01X8665Y4872D01*
G01X8615Y4867D01*
G01X8562Y4872D01*
G01X8515Y4889D01*
G01X8474Y4916D01*
G01X8440Y4952D01*
G01X8413Y4997D01*
G01X8393Y5050D01*
G01X8380Y5111D01*
G01X8376Y5179D01*
G01X8381Y5247D01*
G01X8393Y5308D01*
G01X8414Y5361D01*
G01X8442Y5406D01*
G01X8477Y5441D01*
G01X8519Y5467D01*
G01X8565Y5483D01*
G01X8617Y5489D01*
G01X8662Y5484D01*
G01X8703Y5470D01*
G01X8740Y5447D01*
G01X8772Y5418D01*
G01X8818Y5471D01*
G01X8781Y5506D01*
G01X8735Y5535D01*
G01X8679Y5555D01*
G37*

%LPD*%
G36*
G01X11510Y5550D02*
G01X11447Y5550D01*
G01X11416Y5534D01*
G01X11381Y5520D01*
G01X11342Y5508D01*
G01X11297Y5499D01*
G01X11297Y5446D01*
G01X11429Y5446D01*
G01X11429Y4874D01*
G01X11261Y4874D01*
G01X11261Y4806D01*
G01X11663Y4806D01*
G01X11663Y4874D01*
G01X11510Y4874D01*
G01X11510Y5550D01*
G37*

%LPD*%
G36*
G01X9854Y5550D02*
G01X9765Y5550D01*
G01X10004Y4806D01*
G01X10101Y4806D01*
G01X10337Y5550D01*
G01X10253Y5550D01*
G01X10129Y5139D01*
G01X10110Y5075D01*
G01X10092Y5016D01*
G01X10075Y4956D01*
G01X10055Y4892D01*
G01X10052Y4892D01*
G01X10032Y4956D01*
G01X10014Y5016D01*
G01X9996Y5075D01*
G01X9979Y5139D01*
G01X9854Y5550D01*
G37*

%LPD*%
G36*
G01X9194Y5550D02*
G01X8978Y5550D01*
G01X8978Y4806D01*
G01X9209Y4806D01*
G01X9270Y4809D01*
G01X9324Y4819D01*
G01X9372Y4836D01*
G01X9413Y4860D01*
G01X9446Y4891D01*
G01X9471Y4928D01*
G01X9486Y4972D01*
G01X9491Y5024D01*
G01X9480Y5092D01*
G01X9448Y5145D01*
G01X9399Y5181D01*
G01X9336Y5202D01*
G01X9336Y5207D01*
G01X9383Y5232D01*
G01X9419Y5268D01*
G01X9440Y5314D01*
G01X9448Y5367D01*
G01X9443Y5412D01*
G01X9429Y5450D01*
G01X9407Y5482D01*
G01X9377Y5507D01*
G01X9340Y5526D01*
G01X9297Y5540D01*
G01X9248Y5547D01*
G01X9194Y5550D01*
G37*

%LPC*%
G36*
G01X9196Y5166D02*
G01X9062Y5166D01*
G01X9062Y4872D01*
G01X9196Y4872D01*
G01X9285Y4881D01*
G01X9351Y4909D01*
G01X9393Y4958D01*
G01X9407Y5027D01*
G01X9393Y5088D01*
G01X9352Y5132D01*
G01X9286Y5158D01*
G01X9196Y5166D01*
G37*
G36*
G01X9181Y5481D02*
G01X9062Y5481D01*
G01X9062Y5230D01*
G01X9176Y5230D01*
G01X9262Y5239D01*
G01X9320Y5264D01*
G01X9353Y5304D01*
G01X9364Y5357D01*
G01X9352Y5415D01*
G01X9317Y5454D01*
G01X9260Y5475D01*
G01X9181Y5481D01*
G37*

%LPD*%
G36*
G01X7903Y5550D02*
G01X7698Y5550D01*
G01X7698Y4806D01*
G01X7782Y4806D01*
G01X7782Y5106D01*
G01X7909Y5106D01*
G01X7967Y5109D01*
G01X8020Y5119D01*
G01X8066Y5137D01*
G01X8105Y5162D01*
G01X8137Y5194D01*
G01X8161Y5233D01*
G01X8175Y5280D01*
G01X8180Y5334D01*
G01X8175Y5390D01*
G01X8161Y5435D01*
G01X8137Y5473D01*
G01X8105Y5502D01*
G01X8065Y5524D01*
G01X8017Y5539D01*
G01X7963Y5547D01*
G01X7903Y5550D01*
G37*

%LPC*%
G36*
G01X7891Y5481D02*
G01X7782Y5481D01*
G01X7782Y5177D01*
G01X7896Y5177D01*
G01X7984Y5185D01*
G01X8047Y5213D01*
G01X8084Y5263D01*
G01X8097Y5334D01*
G01X8084Y5404D01*
G01X8045Y5449D01*
G01X7981Y5474D01*
G01X7891Y5481D01*
G37*

%LPD*%

%LPD*%
G36*
G01X16783Y4272D02*
G01X16735Y4275D01*
G01X16687Y4272D01*
G01X16640Y4263D01*
G01X16595Y4249D01*
G01X16553Y4229D01*
G01X16514Y4204D01*
G01X16479Y4174D01*
G01X16448Y4139D01*
G01X16421Y4100D01*
G01X16399Y4057D01*
G01X16383Y4009D01*
G01X16373Y3957D01*
G01X16369Y3902D01*
G01X16373Y3846D01*
G01X16383Y3793D01*
G01X16399Y3745D01*
G01X16421Y3701D01*
G01X16448Y3661D01*
G01X16479Y3626D01*
G01X16514Y3595D01*
G01X16553Y3570D01*
G01X16595Y3550D01*
G01X16640Y3535D01*
G01X16687Y3526D01*
G01X16735Y3523D01*
G01X16783Y3526D01*
G01X16830Y3535D01*
G01X16875Y3550D01*
G01X16917Y3570D01*
G01X16956Y3595D01*
G01X16991Y3626D01*
G01X17023Y3661D01*
G01X17050Y3701D01*
G01X17071Y3745D01*
G01X17087Y3793D01*
G01X17097Y3846D01*
G01X17101Y3902D01*
G01X17097Y3957D01*
G01X17087Y4009D01*
G01X17071Y4057D01*
G01X17050Y4100D01*
G01X17023Y4139D01*
G01X16991Y4174D01*
G01X16956Y4204D01*
G01X16917Y4229D01*
G01X16875Y4249D01*
G01X16830Y4263D01*
G01X16783Y4272D01*
G37*

%LPC*%
G36*
G01X16798Y4226D02*
G01X16735Y4232D01*
G01X16673Y4226D01*
G01X16614Y4208D01*
G01X16561Y4179D01*
G01X16514Y4141D01*
G01X16475Y4093D01*
G01X16446Y4037D01*
G01X16427Y3973D01*
G01X16420Y3902D01*
G01X16427Y3829D01*
G01X16446Y3764D01*
G01X16475Y3708D01*
G01X16514Y3659D01*
G01X16561Y3620D01*
G01X16614Y3591D01*
G01X16673Y3572D01*
G01X16735Y3566D01*
G01X16798Y3572D01*
G01X16856Y3591D01*
G01X16909Y3620D01*
G01X16957Y3659D01*
G01X16995Y3708D01*
G01X17025Y3764D01*
G01X17043Y3829D01*
G01X17050Y3902D01*
G01X17043Y3973D01*
G01X17025Y4037D01*
G01X16995Y4093D01*
G01X16957Y4141D01*
G01X16909Y4179D01*
G01X16856Y4208D01*
G01X16798Y4226D01*
G37*

%LPD*%
G36*
G01X15262Y4095D02*
G01X15214Y4100D01*
G01X15167Y4095D01*
G01X15122Y4079D01*
G01X15081Y4055D01*
G01X15044Y4021D01*
G01X15013Y3980D01*
G01X14990Y3931D01*
G01X14975Y3874D01*
G01X14970Y3810D01*
G01X14975Y3746D01*
G01X14990Y3689D01*
G01X15013Y3640D01*
G01X15045Y3599D01*
G01X15083Y3566D01*
G01X15127Y3542D01*
G01X15176Y3528D01*
G01X15229Y3523D01*
G01X15282Y3528D01*
G01X15329Y3540D01*
G01X15372Y3557D01*
G01X15409Y3579D01*
G01X15379Y3632D01*
G01X15347Y3615D01*
G01X15314Y3601D01*
G01X15278Y3592D01*
G01X15239Y3589D01*
G01X15164Y3604D01*
G01X15106Y3645D01*
G01X15067Y3709D01*
G01X15051Y3792D01*
G01X15427Y3792D01*
G01X15429Y3803D01*
G01X15429Y3815D01*
G01X15430Y3827D01*
G01X15430Y3841D01*
G01X15426Y3898D01*
G01X15415Y3949D01*
G01X15398Y3993D01*
G01X15373Y4030D01*
G01X15342Y4060D01*
G01X15305Y4082D01*
G01X15262Y4095D01*
G37*

%LPC*%
G36*
G01X15275Y4020D02*
G01X15214Y4031D01*
G01X15155Y4019D01*
G01X15106Y3984D01*
G01X15069Y3927D01*
G01X15051Y3851D01*
G01X15356Y3851D01*
G01X15347Y3930D01*
G01X15319Y3986D01*
G01X15275Y4020D01*
G37*

%LPD*%
G36*
G01X14738Y4095D02*
G01X14690Y4100D01*
G01X14612Y4088D01*
G01X14554Y4054D01*
G01X14518Y4005D01*
G01X14505Y3945D01*
G01X14520Y3884D01*
G01X14558Y3841D01*
G01X14611Y3811D01*
G01X14670Y3787D01*
G01X14716Y3769D01*
G01X14756Y3747D01*
G01X14786Y3718D01*
G01X14797Y3678D01*
G01X14790Y3642D01*
G01X14770Y3613D01*
G01X14735Y3594D01*
G01X14685Y3587D01*
G01X14636Y3592D01*
G01X14593Y3605D01*
G01X14554Y3626D01*
G01X14518Y3653D01*
G01X14477Y3597D01*
G01X14520Y3568D01*
G01X14569Y3544D01*
G01X14623Y3529D01*
G01X14680Y3523D01*
G01X14765Y3536D01*
G01X14827Y3571D01*
G01X14865Y3622D01*
G01X14878Y3683D01*
G01X14863Y3749D01*
G01X14823Y3794D01*
G01X14768Y3826D01*
G01X14708Y3851D01*
G01X14662Y3868D01*
G01X14622Y3888D01*
G01X14594Y3914D01*
G01X14584Y3950D01*
G01X14590Y3981D01*
G01X14610Y4008D01*
G01X14643Y4027D01*
G01X14690Y4034D01*
G01X14726Y4030D01*
G01X14758Y4019D01*
G01X14788Y4003D01*
G01X14817Y3983D01*
G01X14858Y4039D01*
G01X14823Y4062D01*
G01X14783Y4081D01*
G01X14738Y4095D01*
G37*

%LPD*%
G36*
G01X14234Y4095D02*
G01X14185Y4100D01*
G01X14139Y4095D01*
G01X14094Y4079D01*
G01X14053Y4055D01*
G01X14016Y4021D01*
G01X13985Y3980D01*
G01X13962Y3931D01*
G01X13947Y3874D01*
G01X13941Y3810D01*
G01X13946Y3746D01*
G01X13961Y3689D01*
G01X13985Y3640D01*
G01X14016Y3599D01*
G01X14054Y3566D01*
G01X14099Y3542D01*
G01X14147Y3528D01*
G01X14200Y3523D01*
G01X14253Y3528D01*
G01X14301Y3540D01*
G01X14343Y3557D01*
G01X14380Y3579D01*
G01X14350Y3632D01*
G01X14319Y3615D01*
G01X14285Y3601D01*
G01X14249Y3592D01*
G01X14210Y3589D01*
G01X14136Y3604D01*
G01X14077Y3645D01*
G01X14039Y3709D01*
G01X14022Y3792D01*
G01X14398Y3792D01*
G01X14400Y3803D01*
G01X14400Y3815D01*
G01X14401Y3827D01*
G01X14401Y3841D01*
G01X14397Y3898D01*
G01X14387Y3949D01*
G01X14369Y3993D01*
G01X14344Y4030D01*
G01X14313Y4060D01*
G01X14276Y4082D01*
G01X14234Y4095D01*
G37*

%LPC*%
G36*
G01X14247Y4020D02*
G01X14187Y4031D01*
G01X14129Y4019D01*
G01X14078Y3984D01*
G01X14041Y3927D01*
G01X14022Y3851D01*
G01X14330Y3851D01*
G01X14320Y3930D01*
G01X14292Y3986D01*
G01X14247Y4020D01*
G37*

%LPD*%
G36*
G01X13386Y4285D02*
G01X13316Y4293D01*
G01X13268Y4290D01*
G01X13223Y4281D01*
G01X13181Y4266D01*
G01X13141Y4245D01*
G01X13106Y4220D01*
G01X13074Y4189D01*
G01X13046Y4154D01*
G01X13023Y4113D01*
G01X13004Y4068D01*
G01X12990Y4018D01*
G01X12981Y3965D01*
G01X12978Y3907D01*
G01X12985Y3822D01*
G01X13003Y3746D01*
G01X13032Y3681D01*
G01X13071Y3625D01*
G01X13119Y3582D01*
G01X13176Y3550D01*
G01X13239Y3530D01*
G01X13309Y3523D01*
G01X13380Y3529D01*
G01X13443Y3547D01*
G01X13496Y3573D01*
G01X13537Y3607D01*
G01X13537Y3917D01*
G01X13298Y3917D01*
G01X13298Y3846D01*
G01X13458Y3846D01*
G01X13458Y3642D01*
G01X13432Y3624D01*
G01X13398Y3609D01*
G01X13360Y3600D01*
G01X13319Y3597D01*
G01X13261Y3602D01*
G01X13211Y3619D01*
G01X13167Y3646D01*
G01X13131Y3682D01*
G01X13102Y3727D01*
G01X13082Y3780D01*
G01X13069Y3841D01*
G01X13065Y3909D01*
G01X13069Y3977D01*
G01X13083Y4038D01*
G01X13104Y4091D01*
G01X13134Y4136D01*
G01X13170Y4171D01*
G01X13214Y4197D01*
G01X13263Y4213D01*
G01X13319Y4219D01*
G01X13371Y4213D01*
G01X13414Y4198D01*
G01X13450Y4175D01*
G01X13481Y4148D01*
G01X13527Y4201D01*
G01X13491Y4235D01*
G01X13445Y4264D01*
G01X13386Y4285D01*
G37*

%LPD*%
G36*
G01X11892Y4083D02*
G01X11807Y4100D01*
G01X11743Y4093D01*
G01X11686Y4075D01*
G01X11635Y4051D01*
G01X11594Y4026D01*
G01X11627Y3968D01*
G01X11661Y3990D01*
G01X11701Y4009D01*
G01X11747Y4023D01*
G01X11795Y4029D01*
G01X11853Y4016D01*
G01X11888Y3983D01*
G01X11907Y3937D01*
G01X11912Y3881D01*
G01X11829Y3870D01*
G01X11759Y3855D01*
G01X11700Y3837D01*
G01X11653Y3815D01*
G01X11616Y3788D01*
G01X11591Y3757D01*
G01X11576Y3720D01*
G01X11571Y3678D01*
G01X11583Y3611D01*
G01X11616Y3562D01*
G01X11667Y3533D01*
G01X11729Y3523D01*
G01X11780Y3529D01*
G01X11828Y3546D01*
G01X11873Y3571D01*
G01X11914Y3602D01*
G01X11917Y3602D01*
G01X11924Y3536D01*
G01X11993Y3536D01*
G01X11993Y3876D01*
G01X11983Y3967D01*
G01X11950Y4038D01*
G01X11892Y4083D01*
G37*

%LPC*%
G36*
G01X11912Y3665D02*
G01X11912Y3825D01*
G01X11788Y3805D01*
G01X11707Y3774D01*
G01X11663Y3733D01*
G01X11650Y3683D01*
G01X11658Y3640D01*
G01X11680Y3612D01*
G01X11712Y3595D01*
G01X11752Y3589D01*
G01X11792Y3594D01*
G01X11832Y3609D01*
G01X11871Y3633D01*
G01X11912Y3665D01*
G37*

%LPD*%
G36*
G01X11132Y4344D02*
G01X11048Y4344D01*
G01X11048Y3637D01*
G01X11054Y3589D01*
G01X11070Y3553D01*
G01X11098Y3531D01*
G01X11139Y3523D01*
G01X11155Y3524D01*
G01X11167Y3525D01*
G01X11178Y3527D01*
G01X11188Y3531D01*
G01X11175Y3594D01*
G01X11169Y3593D01*
G01X11164Y3592D01*
G01X11157Y3592D01*
G01X11147Y3594D01*
G01X11139Y3600D01*
G01X11134Y3612D01*
G01X11132Y3630D01*
G01X11132Y4344D01*
G37*

%LPD*%
G36*
G01X8794Y4083D02*
G01X8709Y4100D01*
G01X8645Y4093D01*
G01X8587Y4075D01*
G01X8536Y4051D01*
G01X8495Y4026D01*
G01X8528Y3968D01*
G01X8562Y3990D01*
G01X8603Y4009D01*
G01X8648Y4023D01*
G01X8696Y4029D01*
G01X8754Y4016D01*
G01X8789Y3983D01*
G01X8808Y3937D01*
G01X8813Y3881D01*
G01X8731Y3870D01*
G01X8660Y3855D01*
G01X8601Y3837D01*
G01X8554Y3815D01*
G01X8518Y3788D01*
G01X8492Y3757D01*
G01X8478Y3720D01*
G01X8472Y3678D01*
G01X8485Y3611D01*
G01X8518Y3562D01*
G01X8568Y3533D01*
G01X8630Y3523D01*
G01X8681Y3529D01*
G01X8730Y3546D01*
G01X8774Y3571D01*
G01X8815Y3602D01*
G01X8818Y3602D01*
G01X8826Y3536D01*
G01X8894Y3536D01*
G01X8894Y3876D01*
G01X8884Y3967D01*
G01X8851Y4038D01*
G01X8794Y4083D01*
G37*

%LPC*%
G36*
G01X8813Y3665D02*
G01X8813Y3825D01*
G01X8689Y3805D01*
G01X8609Y3774D01*
G01X8564Y3733D01*
G01X8551Y3683D01*
G01X8559Y3640D01*
G01X8581Y3612D01*
G01X8613Y3595D01*
G01X8653Y3589D01*
G01X8693Y3594D01*
G01X8733Y3609D01*
G01X8772Y3633D01*
G01X8813Y3665D01*
G37*

%LPD*%
G36*
G01X15908Y4085D02*
G01X15833Y4100D01*
G01X15780Y4092D01*
G01X15732Y4071D01*
G01X15689Y4041D01*
G01X15648Y4003D01*
G01X15645Y4003D01*
G01X15635Y4084D01*
G01X15569Y4084D01*
G01X15569Y3536D01*
G01X15650Y3536D01*
G01X15650Y3937D01*
G01X15692Y3976D01*
G01X15729Y4004D01*
G01X15767Y4020D01*
G01X15808Y4026D01*
G01X15857Y4017D01*
G01X15891Y3990D01*
G01X15911Y3942D01*
G01X15917Y3874D01*
G01X15917Y3536D01*
G01X16001Y3536D01*
G01X16001Y3884D01*
G01X15991Y3976D01*
G01X15960Y4044D01*
G01X15908Y4085D01*
G37*

%LPD*%
G36*
G01X13791Y4084D02*
G01X13710Y4084D01*
G01X13710Y3536D01*
G01X13791Y3536D01*
G01X13791Y4084D01*
G37*

%LPD*%
G36*
G01X12512Y4085D02*
G01X12437Y4100D01*
G01X12384Y4092D01*
G01X12336Y4071D01*
G01X12293Y4041D01*
G01X12252Y4003D01*
G01X12249Y4003D01*
G01X12242Y4084D01*
G01X12173Y4084D01*
G01X12173Y3536D01*
G01X12257Y3536D01*
G01X12257Y3937D01*
G01X12297Y3976D01*
G01X12334Y4004D01*
G01X12371Y4020D01*
G01X12412Y4026D01*
G01X12461Y4017D01*
G01X12495Y3990D01*
G01X12515Y3942D01*
G01X12521Y3874D01*
G01X12521Y3536D01*
G01X12605Y3536D01*
G01X12605Y3884D01*
G01X12595Y3976D01*
G01X12564Y4044D01*
G01X12512Y4085D01*
G37*

%LPD*%
G36*
G01X11414Y4084D02*
G01X11332Y4084D01*
G01X11332Y3536D01*
G01X11414Y3536D01*
G01X11414Y4084D01*
G37*

%LPD*%
G36*
G01X10858Y4084D02*
G01X10776Y4084D01*
G01X10776Y3536D01*
G01X10858Y3536D01*
G01X10858Y4084D01*
G37*

%LPD*%
G36*
G01X10147Y4092D02*
G01X10090Y4100D01*
G01X10044Y4092D01*
G01X10000Y4071D01*
G01X9958Y4041D01*
G01X9920Y4003D01*
G01X9918Y4003D01*
G01X9910Y4084D01*
G01X9842Y4084D01*
G01X9842Y3536D01*
G01X9925Y3536D01*
G01X9925Y3937D01*
G01X9963Y3977D01*
G01X10000Y4005D01*
G01X10034Y4021D01*
G01X10068Y4026D01*
G01X10115Y4017D01*
G01X10148Y3990D01*
G01X10168Y3942D01*
G01X10174Y3874D01*
G01X10174Y3536D01*
G01X10258Y3536D01*
G01X10258Y3937D01*
G01X10297Y3977D01*
G01X10333Y4005D01*
G01X10368Y4021D01*
G01X10403Y4026D01*
G01X10450Y4017D01*
G01X10483Y3990D01*
G01X10503Y3942D01*
G01X10510Y3874D01*
G01X10510Y3536D01*
G01X10591Y3536D01*
G01X10591Y3884D01*
G01X10581Y3976D01*
G01X10550Y4044D01*
G01X10499Y4085D01*
G01X10426Y4100D01*
G01X10377Y4092D01*
G01X10331Y4069D01*
G01X10287Y4035D01*
G01X10243Y3993D01*
G01X10222Y4037D01*
G01X10191Y4070D01*
G01X10147Y4092D01*
G37*

%LPD*%
G36*
G01X9651Y4084D02*
G01X9570Y4084D01*
G01X9570Y3536D01*
G01X9651Y3536D01*
G01X9651Y4084D01*
G37*

%LPD*%
G36*
G01X9097Y4084D02*
G01X9008Y4084D01*
G01X9176Y3823D01*
G01X8993Y3536D01*
G01X9082Y3536D01*
G01X9158Y3668D01*
G01X9188Y3720D01*
G01X9202Y3745D01*
G01X9217Y3769D01*
G01X9222Y3769D01*
G01X9252Y3720D01*
G01X9267Y3694D01*
G01X9283Y3668D01*
G01X9367Y3536D01*
G01X9458Y3536D01*
G01X9275Y3815D01*
G01X9443Y4084D01*
G01X9356Y4084D01*
G01X9285Y3960D01*
G01X9234Y3869D01*
G01X9229Y3869D01*
G01X9216Y3891D01*
G01X9187Y3937D01*
G01X9173Y3960D01*
G01X9097Y4084D01*
G37*

%LPD*%
G36*
G01X7802Y4280D02*
G01X7698Y4280D01*
G01X7698Y3536D01*
G01X7774Y3536D01*
G01X7774Y3965D01*
G01X7773Y4016D01*
G01X7770Y4072D01*
G01X7766Y4128D01*
G01X7764Y4181D01*
G01X7766Y4181D01*
G01X7827Y4013D01*
G01X7972Y3612D01*
G01X8030Y3612D01*
G01X8175Y4013D01*
G01X8234Y4181D01*
G01X8239Y4181D01*
G01X8235Y4128D01*
G01X8232Y4072D01*
G01X8230Y4016D01*
G01X8229Y3965D01*
G01X8229Y3536D01*
G01X8307Y3536D01*
G01X8307Y4280D01*
G01X8203Y4280D01*
G01X8058Y3874D01*
G01X8045Y3834D01*
G01X8033Y3793D01*
G01X8019Y3754D01*
G01X8005Y3714D01*
G01X8000Y3714D01*
G01X7974Y3794D01*
G01X7960Y3834D01*
G01X7947Y3874D01*
G01X7802Y4280D01*
G37*

%LPD*%
G36*
G01X16790Y4110D02*
G01X16748Y4115D01*
G01X16669Y4100D01*
G01X16602Y4058D01*
G01X16557Y3990D01*
G01X16539Y3902D01*
G01X16556Y3808D01*
G01X16599Y3737D01*
G01X16664Y3693D01*
G01X16743Y3678D01*
G01X16790Y3683D01*
G01X16830Y3696D01*
G01X16864Y3717D01*
G01X16895Y3742D01*
G01X16865Y3787D01*
G01X16839Y3766D01*
G01X16812Y3749D01*
G01X16781Y3738D01*
G01X16745Y3734D01*
G01X16688Y3746D01*
G01X16645Y3780D01*
G01X16618Y3832D01*
G01X16608Y3902D01*
G01X16618Y3965D01*
G01X16647Y4013D01*
G01X16692Y4045D01*
G01X16750Y4057D01*
G01X16779Y4053D01*
G01X16804Y4045D01*
G01X16828Y4031D01*
G01X16852Y4011D01*
G01X16887Y4051D01*
G01X16858Y4076D01*
G01X16826Y4097D01*
G01X16790Y4110D01*
G37*

%LPD*%
G36*
G01X13774Y4312D02*
G01X13751Y4316D01*
G01X13728Y4312D01*
G01X13709Y4300D01*
G01X13697Y4282D01*
G01X13692Y4257D01*
G01X13697Y4235D01*
G01X13709Y4218D01*
G01X13728Y4206D01*
G01X13751Y4201D01*
G01X13774Y4206D01*
G01X13793Y4218D01*
G01X13806Y4235D01*
G01X13812Y4257D01*
G01X13806Y4282D01*
G01X13793Y4300D01*
G01X13774Y4312D01*
G37*

%LPD*%
G36*
G01X11397Y4312D02*
G01X11373Y4316D01*
G01X11350Y4312D01*
G01X11331Y4300D01*
G01X11319Y4282D01*
G01X11315Y4257D01*
G01X11319Y4235D01*
G01X11331Y4218D01*
G01X11350Y4206D01*
G01X11373Y4201D01*
G01X11397Y4206D01*
G01X11416Y4218D01*
G01X11429Y4235D01*
G01X11434Y4257D01*
G01X11429Y4282D01*
G01X11416Y4300D01*
G01X11397Y4312D01*
G37*

%LPD*%
G36*
G01X10840Y4312D02*
G01X10817Y4316D01*
G01X10794Y4312D01*
G01X10775Y4300D01*
G01X10763Y4282D01*
G01X10758Y4257D01*
G01X10763Y4235D01*
G01X10775Y4218D01*
G01X10794Y4206D01*
G01X10817Y4201D01*
G01X10840Y4206D01*
G01X10860Y4218D01*
G01X10873Y4235D01*
G01X10878Y4257D01*
G01X10873Y4282D01*
G01X10860Y4300D01*
G01X10840Y4312D01*
G37*

%LPD*%
G36*
G01X9634Y4312D02*
G01X9610Y4316D01*
G01X9586Y4312D01*
G01X9567Y4300D01*
G01X9554Y4282D01*
G01X9549Y4257D01*
G01X9554Y4235D01*
G01X9567Y4218D01*
G01X9586Y4206D01*
G01X9610Y4201D01*
G01X9634Y4206D01*
G01X9653Y4218D01*
G01X9666Y4235D01*
G01X9671Y4257D01*
G01X9666Y4282D01*
G01X9653Y4300D01*
G01X9634Y4312D01*
G37*

%LPD*%

%LPD*%
G36*
G01X45659Y38698D02*
G01X45588Y38698D01*
G01X45588Y38548D01*
G01X44915Y38548D01*
G01X44915Y38485D01*
G01X44931Y38454D01*
G01X44944Y38419D01*
G01X44955Y38380D01*
G01X44966Y38335D01*
G01X45019Y38335D01*
G01X45019Y38464D01*
G01X45588Y38464D01*
G01X45588Y38299D01*
G01X45659Y38299D01*
G01X45659Y38698D01*
G37*

%LPD*%
G36*
G01X45481Y39276D02*
G01X45430Y39280D01*
G01X45376Y39276D01*
G01X45328Y39265D01*
G01X45288Y39248D01*
G01X45255Y39224D01*
G01X45230Y39194D01*
G01X45212Y39159D01*
G01X45200Y39119D01*
G01X45197Y39074D01*
G01X45203Y39028D01*
G01X45221Y38983D01*
G01X45250Y38940D01*
G01X45288Y38901D01*
G01X45206Y38907D01*
G01X45138Y38920D01*
G01X45082Y38939D01*
G01X45040Y38963D01*
G01X45008Y38992D01*
G01X44986Y39025D01*
G01X44974Y39061D01*
G01X44971Y39099D01*
G01X44974Y39132D01*
G01X44985Y39164D01*
G01X45003Y39193D01*
G01X45027Y39219D01*
G01X44976Y39264D01*
G01X44946Y39231D01*
G01X44922Y39193D01*
G01X44907Y39149D01*
G01X44902Y39097D01*
G01X44907Y39045D01*
G01X44923Y38994D01*
G01X44952Y38947D01*
G01X44993Y38906D01*
G01X45048Y38872D01*
G01X45118Y38845D01*
G01X45202Y38829D01*
G01X45303Y38823D01*
G01X45389Y38828D01*
G01X45463Y38841D01*
G01X45527Y38863D01*
G01X45579Y38893D01*
G01X45619Y38929D01*
G01X45648Y38970D01*
G01X45666Y39018D01*
G01X45672Y39069D01*
G01X45667Y39111D01*
G01X45654Y39150D01*
G01X45633Y39186D01*
G01X45604Y39217D01*
G01X45569Y39243D01*
G01X45528Y39263D01*
G01X45481Y39276D01*
G37*

%LPC*%
G36*
G01X45502Y39189D02*
G01X45430Y39198D01*
G01X45361Y39190D01*
G01X45307Y39165D01*
G01X45272Y39122D01*
G01X45260Y39061D01*
G01X45265Y39024D01*
G01X45283Y38984D01*
G01X45314Y38943D01*
G01X45359Y38904D01*
G01X45464Y38920D01*
G01X45541Y38953D01*
G01X45589Y39003D01*
G01X45606Y39069D01*
G01X45593Y39120D01*
G01X45557Y39161D01*
G01X45502Y39189D01*
G37*

%LPD*%
G36*
G01X45508Y40725D02*
G01X45461Y40730D01*
G01X45390Y40718D01*
G01X45334Y40683D01*
G01X45294Y40633D01*
G01X45270Y40570D01*
G01X45265Y40570D01*
G01X45238Y40625D01*
G01X45199Y40668D01*
G01X45148Y40695D01*
G01X45085Y40705D01*
G01X45007Y40689D01*
G01X44949Y40645D01*
G01X44913Y40578D01*
G01X44900Y40494D01*
G01X44907Y40433D01*
G01X44926Y40379D01*
G01X44953Y40331D01*
G01X44989Y40288D01*
G01X45042Y40334D01*
G01X45012Y40367D01*
G01X44989Y40404D01*
G01X44973Y40445D01*
G01X44968Y40489D01*
G01X44977Y40544D01*
G01X45001Y40585D01*
G01X45040Y40612D01*
G01X45090Y40621D01*
G01X45149Y40610D01*
G01X45195Y40574D01*
G01X45226Y40509D01*
G01X45237Y40410D01*
G01X45303Y40410D01*
G01X45314Y40520D01*
G01X45346Y40593D01*
G01X45394Y40634D01*
G01X45458Y40646D01*
G01X45518Y40635D01*
G01X45564Y40602D01*
G01X45593Y40553D01*
G01X45603Y40491D01*
G01X45596Y40431D01*
G01X45576Y40380D01*
G01X45548Y40338D01*
G01X45517Y40303D01*
G01X45570Y40260D01*
G01X45607Y40301D01*
G01X45640Y40353D01*
G01X45663Y40417D01*
G01X45672Y40496D01*
G01X45668Y40544D01*
G01X45657Y40588D01*
G01X45640Y40627D01*
G01X45616Y40662D01*
G01X45585Y40690D01*
G01X45549Y40712D01*
G01X45508Y40725D01*
G37*

%LPD*%
G36*
G01X45632Y40982D02*
G01X45606Y40987D01*
G01X45578Y40982D01*
G01X45557Y40968D01*
G01X45544Y40948D01*
G01X45540Y40923D01*
G01X45544Y40900D01*
G01X45557Y40880D01*
G01X45578Y40867D01*
G01X45606Y40862D01*
G01X45632Y40867D01*
G01X45653Y40880D01*
G01X45667Y40900D01*
G01X45672Y40923D01*
G01X45667Y40948D01*
G01X45653Y40968D01*
G01X45632Y40982D01*
G37*

%LPD*%
G36*
G01X45508Y41556D02*
G01X45461Y41561D01*
G01X45390Y41548D01*
G01X45334Y41514D01*
G01X45294Y41464D01*
G01X45270Y41403D01*
G01X45265Y41403D01*
G01X45238Y41457D01*
G01X45199Y41499D01*
G01X45148Y41526D01*
G01X45085Y41535D01*
G01X45007Y41519D01*
G01X44949Y41476D01*
G01X44913Y41409D01*
G01X44900Y41324D01*
G01X44907Y41265D01*
G01X44926Y41211D01*
G01X44953Y41163D01*
G01X44989Y41119D01*
G01X45042Y41164D01*
G01X45012Y41199D01*
G01X44989Y41237D01*
G01X44973Y41278D01*
G01X44968Y41322D01*
G01X44977Y41377D01*
G01X45001Y41417D01*
G01X45040Y41443D01*
G01X45090Y41451D01*
G01X45149Y41441D01*
G01X45195Y41406D01*
G01X45226Y41341D01*
G01X45237Y41243D01*
G01X45303Y41243D01*
G01X45314Y41353D01*
G01X45346Y41426D01*
G01X45394Y41467D01*
G01X45458Y41479D01*
G01X45518Y41468D01*
G01X45564Y41435D01*
G01X45593Y41385D01*
G01X45603Y41322D01*
G01X45596Y41262D01*
G01X45576Y41213D01*
G01X45548Y41170D01*
G01X45517Y41134D01*
G01X45570Y41093D01*
G01X45607Y41133D01*
G01X45640Y41185D01*
G01X45663Y41249D01*
G01X45672Y41327D01*
G01X45668Y41375D01*
G01X45657Y41419D01*
G01X45640Y41459D01*
G01X45616Y41494D01*
G01X45585Y41522D01*
G01X45549Y41543D01*
G01X45508Y41556D01*
G37*

%LPD*%
G36*
G01X45659Y41957D02*
G01X44915Y42196D01*
G01X44915Y42109D01*
G01X45324Y41987D01*
G01X45387Y41968D01*
G01X45448Y41950D01*
G01X45508Y41932D01*
G01X45570Y41911D01*
G01X45570Y41909D01*
G01X45508Y41888D01*
G01X45448Y41870D01*
G01X45387Y41853D01*
G01X45324Y41835D01*
G01X44915Y41710D01*
G01X44915Y41622D01*
G01X45659Y41860D01*
G01X45659Y41957D01*
G37*

%LPD*%
G36*
G01X45475Y43826D02*
G01X45418Y43831D01*
G01X45360Y43827D01*
G01X45311Y43814D01*
G01X45269Y43794D01*
G01X45236Y43766D01*
G01X45211Y43733D01*
G01X45193Y43695D01*
G01X45182Y43653D01*
G01X45179Y43608D01*
G01X45181Y43575D01*
G01X45188Y43546D01*
G01X45198Y43519D01*
G01X45212Y43494D01*
G01X44986Y43514D01*
G01X44986Y43796D01*
G01X44915Y43796D01*
G01X44915Y43440D01*
G01X45260Y43417D01*
G01X45288Y43463D01*
G01X45269Y43494D01*
G01X45255Y43523D01*
G01X45246Y43553D01*
G01X45243Y43588D01*
G01X45254Y43654D01*
G01X45289Y43704D01*
G01X45345Y43736D01*
G01X45420Y43748D01*
G01X45496Y43735D01*
G01X45553Y43700D01*
G01X45590Y43648D01*
G01X45603Y43585D01*
G01X45596Y43525D01*
G01X45577Y43474D01*
G01X45549Y43433D01*
G01X45517Y43400D01*
G01X45573Y43356D01*
G01X45609Y43399D01*
G01X45641Y43450D01*
G01X45663Y43514D01*
G01X45672Y43593D01*
G01X45667Y43638D01*
G01X45655Y43682D01*
G01X45633Y43722D01*
G01X45605Y43758D01*
G01X45568Y43788D01*
G01X45525Y43812D01*
G01X45475Y43826D01*
G37*

%LPD*%
G36*
G01X45659Y44223D02*
G01X44915Y44461D01*
G01X44915Y44375D01*
G01X45324Y44253D01*
G01X45387Y44234D01*
G01X45448Y44216D01*
G01X45508Y44199D01*
G01X45570Y44179D01*
G01X45570Y44174D01*
G01X45508Y44155D01*
G01X45448Y44138D01*
G01X45387Y44120D01*
G01X45324Y44101D01*
G01X44915Y43976D01*
G01X44915Y43887D01*
G01X45659Y44126D01*
G01X45659Y44223D01*
G37*

%LPD*%
G36*
G01X45585Y45762D02*
G01X45278Y45762D01*
G01X45278Y45520D01*
G01X45347Y45520D01*
G01X45347Y45683D01*
G01X45550Y45683D01*
G01X45570Y45656D01*
G01X45585Y45622D01*
G01X45595Y45582D01*
G01X45598Y45541D01*
G01X45593Y45484D01*
G01X45576Y45434D01*
G01X45549Y45391D01*
G01X45513Y45355D01*
G01X45468Y45327D01*
G01X45414Y45306D01*
G01X45352Y45294D01*
G01X45283Y45289D01*
G01X45215Y45294D01*
G01X45155Y45307D01*
G01X45102Y45328D01*
G01X45058Y45357D01*
G01X45023Y45393D01*
G01X44997Y45436D01*
G01X44981Y45485D01*
G01X44976Y45541D01*
G01X44981Y45595D01*
G01X44996Y45639D01*
G01X45018Y45675D01*
G01X45047Y45706D01*
G01X44991Y45752D01*
G01X44959Y45715D01*
G01X44930Y45668D01*
G01X44910Y45609D01*
G01X44902Y45538D01*
G01X44905Y45491D01*
G01X44914Y45446D01*
G01X44928Y45404D01*
G01X44948Y45365D01*
G01X44974Y45329D01*
G01X45004Y45297D01*
G01X45040Y45270D01*
G01X45080Y45247D01*
G01X45125Y45228D01*
G01X45174Y45214D01*
G01X45228Y45206D01*
G01X45286Y45203D01*
G01X45372Y45209D01*
G01X45448Y45227D01*
G01X45514Y45256D01*
G01X45569Y45295D01*
G01X45613Y45343D01*
G01X45645Y45399D01*
G01X45665Y45463D01*
G01X45672Y45533D01*
G01X45665Y45604D01*
G01X45647Y45667D01*
G01X45620Y45720D01*
G01X45585Y45762D01*
G37*

%LPD*%
G36*
G01X45659Y46463D02*
G01X44915Y46463D01*
G01X44915Y46382D01*
G01X45316Y46382D01*
G01X45374Y46383D01*
G01X45433Y46386D01*
G01X45547Y46394D01*
G01X45547Y46389D01*
G01X45395Y46308D01*
G01X44915Y46026D01*
G01X44915Y45940D01*
G01X45659Y45940D01*
G01X45659Y46021D01*
G01X45250Y46021D01*
G01X45193Y46020D01*
G01X45136Y46017D01*
G01X45079Y46013D01*
G01X45024Y46011D01*
G01X45024Y46016D01*
G01X45176Y46097D01*
G01X45659Y46376D01*
G01X45659Y46463D01*
G37*

%LPD*%
G36*
G01X45340Y47197D02*
G01X45283Y47199D01*
G01X45227Y47197D01*
G01X45174Y47190D01*
G01X45127Y47178D01*
G01X45084Y47161D01*
G01X45045Y47139D01*
G01X45011Y47113D01*
G01X44982Y47081D01*
G01X44958Y47045D01*
G01X44939Y47004D01*
G01X44926Y46959D01*
G01X44917Y46909D01*
G01X44915Y46854D01*
G01X44915Y46671D01*
G01X45659Y46671D01*
G01X45659Y46857D01*
G01X45656Y46911D01*
G01X45647Y46961D01*
G01X45633Y47005D01*
G01X45613Y47046D01*
G01X45588Y47082D01*
G01X45558Y47113D01*
G01X45524Y47139D01*
G01X45484Y47161D01*
G01X45440Y47178D01*
G01X45392Y47190D01*
G01X45340Y47197D01*
G37*

%LPC*%
G36*
G01X45351Y47109D02*
G01X45283Y47113D01*
G01X45216Y47109D01*
G01X45156Y47097D01*
G01X45104Y47076D01*
G01X45062Y47048D01*
G01X45028Y47010D01*
G01X45003Y46964D01*
G01X44989Y46910D01*
G01X44983Y46846D01*
G01X44983Y46755D01*
G01X45588Y46755D01*
G01X45588Y46846D01*
G01X45582Y46910D01*
G01X45567Y46964D01*
G01X45542Y47010D01*
G01X45507Y47048D01*
G01X45463Y47076D01*
G01X45411Y47097D01*
G01X45351Y47109D01*
G37*

%LPD*%

%LPD*%
G36*
G01X3045Y10199D02*
G01X2953Y10203D01*
G01X2863Y10199D01*
G01X2785Y10188D01*
G01X2720Y10169D01*
G01X2667Y10143D01*
G01X2625Y10110D01*
G01X2595Y10072D01*
G01X2578Y10027D01*
G01X2572Y9977D01*
G01X2578Y9927D01*
G01X2595Y9883D01*
G01X2625Y9844D01*
G01X2667Y9811D01*
G01X2720Y9784D01*
G01X2785Y9765D01*
G01X2863Y9753D01*
G01X2953Y9749D01*
G01X3045Y9753D01*
G01X3124Y9765D01*
G01X3191Y9784D01*
G01X3246Y9811D01*
G01X3288Y9844D01*
G01X3318Y9883D01*
G01X3336Y9927D01*
G01X3342Y9977D01*
G01X3336Y10027D01*
G01X3318Y10072D01*
G01X3288Y10110D01*
G01X3246Y10143D01*
G01X3191Y10169D01*
G01X3124Y10188D01*
G01X3045Y10199D01*
G37*

%LPC*%
G36*
G01X3031Y10122D02*
G01X2953Y10125D01*
G01X2877Y10122D01*
G01X2813Y10114D01*
G01X2758Y10101D01*
G01X2715Y10083D01*
G01X2681Y10062D01*
G01X2657Y10037D01*
G01X2643Y10008D01*
G01X2638Y9977D01*
G01X2643Y9945D01*
G01X2657Y9917D01*
G01X2681Y9891D01*
G01X2715Y9870D01*
G01X2758Y9853D01*
G01X2813Y9841D01*
G01X2877Y9832D01*
G01X2953Y9830D01*
G01X3031Y9832D01*
G01X3098Y9841D01*
G01X3153Y9853D01*
G01X3198Y9870D01*
G01X3232Y9891D01*
G01X3257Y9917D01*
G01X3271Y9945D01*
G01X3276Y9977D01*
G01X3271Y10008D01*
G01X3257Y10037D01*
G01X3232Y10062D01*
G01X3198Y10083D01*
G01X3153Y10101D01*
G01X3098Y10114D01*
G01X3031Y10122D01*
G37*

%LPD*%
G36*
G01X3145Y10752D02*
G01X3088Y10757D01*
G01X3030Y10752D01*
G01X2981Y10740D01*
G01X2940Y10719D01*
G01X2908Y10692D01*
G01X2882Y10659D01*
G01X2865Y10622D01*
G01X2855Y10581D01*
G01X2851Y10536D01*
G01X2853Y10504D01*
G01X2860Y10474D01*
G01X2870Y10446D01*
G01X2882Y10419D01*
G01X2656Y10440D01*
G01X2656Y10724D01*
G01X2585Y10724D01*
G01X2585Y10366D01*
G01X2930Y10343D01*
G01X2958Y10389D01*
G01X2940Y10420D01*
G01X2926Y10449D01*
G01X2918Y10481D01*
G01X2915Y10516D01*
G01X2927Y10581D01*
G01X2962Y10632D01*
G01X3017Y10664D01*
G01X3090Y10676D01*
G01X3166Y10663D01*
G01X3224Y10627D01*
G01X3260Y10575D01*
G01X3273Y10511D01*
G01X3266Y10451D01*
G01X3247Y10402D01*
G01X3221Y10360D01*
G01X3189Y10325D01*
G01X3245Y10285D01*
G01X3281Y10325D01*
G01X3312Y10377D01*
G01X3334Y10441D01*
G01X3342Y10518D01*
G01X3338Y10565D01*
G01X3325Y10608D01*
G01X3304Y10648D01*
G01X3276Y10684D01*
G01X3240Y10714D01*
G01X3196Y10737D01*
G01X3145Y10752D01*
G37*

%LPD*%
G36*
G01X3045Y12673D02*
G01X2953Y12677D01*
G01X2863Y12673D01*
G01X2785Y12662D01*
G01X2720Y12643D01*
G01X2667Y12617D01*
G01X2625Y12584D01*
G01X2595Y12546D01*
G01X2578Y12501D01*
G01X2572Y12451D01*
G01X2578Y12401D01*
G01X2595Y12357D01*
G01X2625Y12318D01*
G01X2667Y12285D01*
G01X2720Y12258D01*
G01X2785Y12239D01*
G01X2863Y12227D01*
G01X2953Y12223D01*
G01X3045Y12227D01*
G01X3124Y12239D01*
G01X3191Y12258D01*
G01X3246Y12285D01*
G01X3288Y12318D01*
G01X3318Y12357D01*
G01X3336Y12401D01*
G01X3342Y12451D01*
G01X3336Y12501D01*
G01X3318Y12546D01*
G01X3288Y12584D01*
G01X3246Y12617D01*
G01X3191Y12643D01*
G01X3124Y12662D01*
G01X3045Y12673D01*
G37*

%LPC*%
G36*
G01X3031Y12596D02*
G01X2953Y12599D01*
G01X2877Y12596D01*
G01X2813Y12588D01*
G01X2758Y12575D01*
G01X2715Y12558D01*
G01X2681Y12537D01*
G01X2657Y12512D01*
G01X2643Y12483D01*
G01X2638Y12451D01*
G01X2643Y12419D01*
G01X2657Y12391D01*
G01X2681Y12365D01*
G01X2715Y12344D01*
G01X2758Y12327D01*
G01X2813Y12315D01*
G01X2877Y12306D01*
G01X2953Y12304D01*
G01X3031Y12306D01*
G01X3098Y12315D01*
G01X3153Y12327D01*
G01X3198Y12344D01*
G01X3232Y12365D01*
G01X3257Y12391D01*
G01X3271Y12419D01*
G01X3276Y12451D01*
G01X3271Y12483D01*
G01X3257Y12512D01*
G01X3232Y12537D01*
G01X3198Y12558D01*
G01X3153Y12575D01*
G01X3098Y12588D01*
G01X3031Y12596D01*
G37*

%LPD*%
G36*
G01X3123Y13256D02*
G01X3057Y13256D01*
G01X3057Y13155D01*
G01X2585Y13155D01*
G01X2585Y13066D01*
G01X3067Y12748D01*
G01X3123Y12748D01*
G01X3123Y13076D01*
G01X3329Y13076D01*
G01X3329Y13155D01*
G01X3123Y13155D01*
G01X3123Y13256D01*
G37*

%LPC*%
G36*
G01X2713Y13079D02*
G01X2681Y13081D01*
G01X2681Y13076D01*
G01X2708Y13062D01*
G01X2736Y13048D01*
G01X2764Y13033D01*
G01X2790Y13018D01*
G01X3057Y12837D01*
G01X3057Y13076D01*
G01X2813Y13076D01*
G01X2783Y13077D01*
G01X2713Y13079D01*
G37*

%LPD*%
G36*
G01X3178Y15142D02*
G01X3131Y15146D01*
G01X3061Y15133D01*
G01X3005Y15100D01*
G01X2964Y15050D01*
G01X2940Y14989D01*
G01X2938Y14989D01*
G01X2911Y15043D01*
G01X2871Y15084D01*
G01X2819Y15111D01*
G01X2755Y15121D01*
G01X2677Y15105D01*
G01X2620Y15061D01*
G01X2584Y14994D01*
G01X2572Y14910D01*
G01X2579Y14850D01*
G01X2597Y14797D01*
G01X2624Y14748D01*
G01X2658Y14704D01*
G01X2714Y14750D01*
G01X2684Y14784D01*
G01X2660Y14822D01*
G01X2644Y14863D01*
G01X2638Y14907D01*
G01X2647Y14962D01*
G01X2673Y15002D01*
G01X2712Y15028D01*
G01X2763Y15037D01*
G01X2821Y15026D01*
G01X2868Y14991D01*
G01X2899Y14927D01*
G01X2910Y14829D01*
G01X2973Y14829D01*
G01X2985Y14938D01*
G01X3017Y15012D01*
G01X3065Y15052D01*
G01X3128Y15065D01*
G01X3188Y15053D01*
G01X3234Y15020D01*
G01X3263Y14970D01*
G01X3273Y14907D01*
G01X3266Y14848D01*
G01X3247Y14798D01*
G01X3220Y14756D01*
G01X3187Y14719D01*
G01X3240Y14679D01*
G01X3279Y14718D01*
G01X3311Y14770D01*
G01X3334Y14834D01*
G01X3342Y14912D01*
G01X3338Y14960D01*
G01X3327Y15005D01*
G01X3310Y15045D01*
G01X3286Y15079D01*
G01X3256Y15107D01*
G01X3220Y15128D01*
G01X3178Y15142D01*
G37*

%LPD*%
G36*
G01X3304Y15400D02*
G01X3278Y15405D01*
G01X3250Y15400D01*
G01X3229Y15386D01*
G01X3215Y15366D01*
G01X3210Y15342D01*
G01X3215Y15318D01*
G01X3229Y15298D01*
G01X3250Y15283D01*
G01X3278Y15278D01*
G01X3304Y15283D01*
G01X3324Y15298D01*
G01X3337Y15318D01*
G01X3342Y15342D01*
G01X3337Y15366D01*
G01X3324Y15386D01*
G01X3304Y15400D01*
G37*

%LPD*%
G36*
G01X3178Y15975D02*
G01X3131Y15979D01*
G01X3061Y15967D01*
G01X3005Y15933D01*
G01X2964Y15883D01*
G01X2940Y15822D01*
G01X2938Y15822D01*
G01X2911Y15876D01*
G01X2871Y15917D01*
G01X2819Y15944D01*
G01X2755Y15954D01*
G01X2677Y15938D01*
G01X2620Y15894D01*
G01X2584Y15827D01*
G01X2572Y15743D01*
G01X2579Y15682D01*
G01X2597Y15629D01*
G01X2624Y15581D01*
G01X2658Y15537D01*
G01X2714Y15583D01*
G01X2684Y15616D01*
G01X2660Y15654D01*
G01X2644Y15696D01*
G01X2638Y15741D01*
G01X2647Y15794D01*
G01X2673Y15835D01*
G01X2712Y15861D01*
G01X2763Y15870D01*
G01X2821Y15859D01*
G01X2868Y15824D01*
G01X2899Y15759D01*
G01X2910Y15659D01*
G01X2973Y15659D01*
G01X2985Y15769D01*
G01X3017Y15842D01*
G01X3065Y15883D01*
G01X3128Y15895D01*
G01X3188Y15884D01*
G01X3234Y15852D01*
G01X3263Y15804D01*
G01X3273Y15741D01*
G01X3266Y15680D01*
G01X3247Y15629D01*
G01X3220Y15588D01*
G01X3187Y15553D01*
G01X3240Y15509D01*
G01X3279Y15550D01*
G01X3311Y15602D01*
G01X3334Y15666D01*
G01X3342Y15746D01*
G01X3338Y15793D01*
G01X3327Y15837D01*
G01X3310Y15877D01*
G01X3286Y15911D01*
G01X3256Y15940D01*
G01X3220Y15961D01*
G01X3178Y15975D01*
G37*

%LPD*%
G36*
G01X3329Y16376D02*
G01X2585Y16612D01*
G01X2585Y16528D01*
G01X2996Y16403D01*
G01X3060Y16384D01*
G01X3120Y16366D01*
G01X3179Y16349D01*
G01X3243Y16330D01*
G01X3243Y16325D01*
G01X3179Y16305D01*
G01X3120Y16288D01*
G01X3060Y16271D01*
G01X2996Y16254D01*
G01X2585Y16127D01*
G01X2585Y16040D01*
G01X3329Y16279D01*
G01X3329Y16376D01*
G37*

%LPD*%
G36*
G01X3045Y18022D02*
G01X2953Y18027D01*
G01X2863Y18022D01*
G01X2785Y18010D01*
G01X2720Y17991D01*
G01X2667Y17965D01*
G01X2625Y17932D01*
G01X2595Y17892D01*
G01X2578Y17848D01*
G01X2572Y17798D01*
G01X2578Y17748D01*
G01X2595Y17703D01*
G01X2625Y17664D01*
G01X2667Y17631D01*
G01X2720Y17605D01*
G01X2785Y17586D01*
G01X2863Y17573D01*
G01X2953Y17569D01*
G01X3045Y17573D01*
G01X3124Y17586D01*
G01X3191Y17605D01*
G01X3246Y17631D01*
G01X3288Y17664D01*
G01X3318Y17703D01*
G01X3336Y17748D01*
G01X3342Y17798D01*
G01X3336Y17848D01*
G01X3318Y17892D01*
G01X3288Y17932D01*
G01X3246Y17965D01*
G01X3191Y17991D01*
G01X3124Y18010D01*
G01X3045Y18022D01*
G37*

%LPC*%
G36*
G01X3031Y17943D02*
G01X2953Y17945D01*
G01X2877Y17943D01*
G01X2813Y17935D01*
G01X2758Y17922D01*
G01X2715Y17905D01*
G01X2681Y17884D01*
G01X2657Y17858D01*
G01X2643Y17830D01*
G01X2638Y17798D01*
G01X2643Y17767D01*
G01X2657Y17738D01*
G01X2681Y17714D01*
G01X2715Y17692D01*
G01X2758Y17674D01*
G01X2813Y17661D01*
G01X2877Y17653D01*
G01X2953Y17651D01*
G01X3031Y17653D01*
G01X3098Y17661D01*
G01X3153Y17674D01*
G01X3198Y17692D01*
G01X3232Y17714D01*
G01X3257Y17738D01*
G01X3271Y17767D01*
G01X3276Y17798D01*
G01X3271Y17830D01*
G01X3257Y17858D01*
G01X3232Y17884D01*
G01X3198Y17905D01*
G01X3153Y17922D01*
G01X3098Y17935D01*
G01X3031Y17943D01*
G37*

%LPD*%
G36*
G01X3329Y18583D02*
G01X3258Y18583D01*
G01X3258Y18340D01*
G01X3259Y18309D01*
G01X3263Y18247D01*
G01X3200Y18313D01*
G01X3138Y18371D01*
G01X3078Y18423D01*
G01X3019Y18466D01*
G01X2961Y18500D01*
G01X2904Y18526D01*
G01X2847Y18542D01*
G01X2790Y18547D01*
G01X2743Y18544D01*
G01X2701Y18532D01*
G01X2663Y18515D01*
G01X2632Y18490D01*
G01X2607Y18459D01*
G01X2588Y18423D01*
G01X2576Y18381D01*
G01X2572Y18334D01*
G01X2580Y18270D01*
G01X2602Y18214D01*
G01X2637Y18165D01*
G01X2681Y18118D01*
G01X2727Y18166D01*
G01X2693Y18200D01*
G01X2664Y18238D01*
G01X2645Y18281D01*
G01X2638Y18326D01*
G01X2650Y18388D01*
G01X2682Y18431D01*
G01X2732Y18457D01*
G01X2793Y18466D01*
G01X2843Y18461D01*
G01X2895Y18446D01*
G01X2949Y18420D01*
G01X3007Y18384D01*
G01X3068Y18336D01*
G01X3134Y18277D01*
G01X3203Y18206D01*
G01X3278Y18123D01*
G01X3329Y18123D01*
G01X3329Y18583D01*
G37*

%LPD*%

%LPD*%
G36*
G01X18043Y30011D02*
G01X17512Y30011D01*
G01X17512Y29927D01*
G01X18033Y29927D01*
G01X18108Y29919D01*
G01X18158Y29896D01*
G01X18186Y29858D01*
G01X18196Y29805D01*
G01X18191Y29765D01*
G01X18176Y29730D01*
G01X18150Y29700D01*
G01X18112Y29673D01*
G01X18155Y29612D01*
G01X18205Y29649D01*
G01X18240Y29694D01*
G01X18262Y29749D01*
G01X18269Y29813D01*
G01X18265Y29862D01*
G01X18251Y29904D01*
G01X18230Y29938D01*
G01X18203Y29965D01*
G01X18169Y29986D01*
G01X18131Y30000D01*
G01X18088Y30008D01*
G01X18043Y30011D01*
G37*

%LPD*%
G36*
G01X18105Y30608D02*
G01X18058Y30613D01*
G01X17988Y30601D01*
G01X17932Y30566D01*
G01X17892Y30515D01*
G01X17868Y30453D01*
G01X17865Y30453D01*
G01X17837Y30508D01*
G01X17798Y30551D01*
G01X17747Y30578D01*
G01X17682Y30587D01*
G01X17604Y30572D01*
G01X17547Y30528D01*
G01X17512Y30461D01*
G01X17500Y30377D01*
G01X17506Y30316D01*
G01X17525Y30261D01*
G01X17552Y30213D01*
G01X17586Y30171D01*
G01X17642Y30216D01*
G01X17611Y30250D01*
G01X17588Y30287D01*
G01X17571Y30327D01*
G01X17566Y30371D01*
G01X17575Y30426D01*
G01X17600Y30468D01*
G01X17639Y30494D01*
G01X17690Y30504D01*
G01X17749Y30492D01*
G01X17795Y30456D01*
G01X17826Y30391D01*
G01X17837Y30293D01*
G01X17901Y30293D01*
G01X17912Y30402D01*
G01X17944Y30476D01*
G01X17993Y30516D01*
G01X18056Y30529D01*
G01X18116Y30517D01*
G01X18162Y30485D01*
G01X18190Y30436D01*
G01X18201Y30374D01*
G01X18194Y30314D01*
G01X18174Y30263D01*
G01X18147Y30221D01*
G01X18114Y30186D01*
G01X18168Y30143D01*
G01X18206Y30184D01*
G01X18238Y30235D01*
G01X18261Y30300D01*
G01X18269Y30379D01*
G01X18266Y30426D01*
G01X18255Y30470D01*
G01X18237Y30510D01*
G01X18213Y30545D01*
G01X18183Y30573D01*
G01X18147Y30594D01*
G01X18105Y30608D01*
G37*

%LPD*%
G36*
G01X17964Y30976D02*
G01X17512Y31199D01*
G01X17512Y31113D01*
G01X17728Y31014D01*
G01X17769Y30997D01*
G01X17809Y30978D01*
G01X17850Y30959D01*
G01X17891Y30938D01*
G01X17891Y30935D01*
G01X17850Y30915D01*
G01X17809Y30896D01*
G01X17769Y30878D01*
G01X17728Y30859D01*
G01X17512Y30760D01*
G01X17512Y30671D01*
G01X17964Y30895D01*
G01X18257Y30895D01*
G01X18257Y30976D01*
G01X17964Y30976D01*
G37*

%LPD*%

%LPD*%
G36*
G01X30809Y42105D02*
G01X30745Y42112D01*
G01X30677Y42105D01*
G01X30615Y42085D01*
G01X30560Y42053D01*
G01X30512Y42009D01*
G01X30473Y41953D01*
G01X30444Y41887D01*
G01X30426Y41811D01*
G01X30420Y41726D01*
G01X30426Y41641D01*
G01X30444Y41565D01*
G01X30472Y41500D01*
G01X30511Y41445D01*
G01X30557Y41401D01*
G01X30612Y41369D01*
G01X30673Y41349D01*
G01X30740Y41342D01*
G01X30808Y41349D01*
G01X30867Y41370D01*
G01X30919Y41404D01*
G01X30966Y41449D01*
G01X30920Y41502D01*
G01X30881Y41465D01*
G01X30840Y41438D01*
G01X30794Y41421D01*
G01X30743Y41416D01*
G01X30691Y41421D01*
G01X30645Y41438D01*
G01X30604Y41465D01*
G01X30570Y41501D01*
G01X30543Y41546D01*
G01X30523Y41599D01*
G01X30511Y41660D01*
G01X30506Y41728D01*
G01X30511Y41796D01*
G01X30523Y41857D01*
G01X30544Y41910D01*
G01X30571Y41955D01*
G01X30607Y41990D01*
G01X30648Y42017D01*
G01X30695Y42033D01*
G01X30748Y42038D01*
G01X30793Y42033D01*
G01X30833Y42019D01*
G01X30869Y41996D01*
G01X30900Y41967D01*
G01X30948Y42020D01*
G01X30911Y42055D01*
G01X30865Y42084D01*
G01X30809Y42105D01*
G37*

%LPD*%
G36*
G01X30131Y42106D02*
G01X30082Y42112D01*
G01X30031Y42106D01*
G01X29986Y42088D01*
G01X29947Y42059D01*
G01X29915Y42018D01*
G01X29888Y41964D01*
G01X29869Y41899D01*
G01X29858Y41821D01*
G01X29854Y41731D01*
G01X29858Y41639D01*
G01X29869Y41560D01*
G01X29888Y41493D01*
G01X29915Y41439D01*
G01X29947Y41397D01*
G01X29986Y41367D01*
G01X30031Y41348D01*
G01X30082Y41342D01*
G01X30131Y41348D01*
G01X30175Y41367D01*
G01X30214Y41397D01*
G01X30246Y41439D01*
G01X30273Y41493D01*
G01X30292Y41560D01*
G01X30304Y41639D01*
G01X30308Y41731D01*
G01X30304Y41821D01*
G01X30292Y41899D01*
G01X30273Y41964D01*
G01X30246Y42018D01*
G01X30214Y42059D01*
G01X30175Y42088D01*
G01X30131Y42106D01*
G37*

%LPC*%
G36*
G01X30113Y42041D02*
G01X30082Y42046D01*
G01X30050Y42041D01*
G01X30021Y42027D01*
G01X29995Y42003D01*
G01X29974Y41970D01*
G01X29956Y41925D01*
G01X29943Y41872D01*
G01X29935Y41807D01*
G01X29932Y41731D01*
G01X29935Y41653D01*
G01X29943Y41587D01*
G01X29956Y41531D01*
G01X29974Y41486D01*
G01X29995Y41451D01*
G01X30021Y41428D01*
G01X30050Y41413D01*
G01X30082Y41408D01*
G01X30113Y41413D01*
G01X30141Y41428D01*
G01X30166Y41451D01*
G01X30187Y41486D01*
G01X30204Y41531D01*
G01X30216Y41587D01*
G01X30224Y41653D01*
G01X30227Y41731D01*
G01X30224Y41807D01*
G01X30216Y41872D01*
G01X30204Y41925D01*
G01X30187Y41970D01*
G01X30166Y42003D01*
G01X30141Y42027D01*
G01X30113Y42041D01*
G37*

%LPD*%
G36*
G01X29034Y42100D02*
G01X28949Y42112D01*
G01X28888Y42105D01*
G01X28835Y42087D01*
G01X28787Y42059D01*
G01X28744Y42025D01*
G01X28789Y41970D01*
G01X28823Y42000D01*
G01X28862Y42024D01*
G01X28903Y42040D01*
G01X28947Y42046D01*
G01X29000Y42037D01*
G01X29041Y42011D01*
G01X29067Y41972D01*
G01X29076Y41921D01*
G01X29065Y41863D01*
G01X29030Y41817D01*
G01X28966Y41786D01*
G01X28868Y41774D01*
G01X28868Y41710D01*
G01X28977Y41699D01*
G01X29050Y41667D01*
G01X29090Y41619D01*
G01X29102Y41556D01*
G01X29090Y41496D01*
G01X29059Y41450D01*
G01X29009Y41421D01*
G01X28947Y41411D01*
G01X28886Y41418D01*
G01X28836Y41437D01*
G01X28794Y41465D01*
G01X28759Y41497D01*
G01X28716Y41444D01*
G01X28757Y41406D01*
G01X28809Y41373D01*
G01X28873Y41351D01*
G01X28952Y41342D01*
G01X28999Y41346D01*
G01X29043Y41357D01*
G01X29083Y41374D01*
G01X29117Y41398D01*
G01X29146Y41429D01*
G01X29167Y41465D01*
G01X29181Y41506D01*
G01X29186Y41553D01*
G01X29173Y41623D01*
G01X29139Y41679D01*
G01X29089Y41720D01*
G01X29028Y41744D01*
G01X29028Y41746D01*
G01X29082Y41774D01*
G01X29124Y41814D01*
G01X29151Y41865D01*
G01X29160Y41929D01*
G01X29145Y42007D01*
G01X29100Y42065D01*
G01X29034Y42100D01*
G37*

%LPD*%
G36*
G01X27759Y42105D02*
G01X27695Y42112D01*
G01X27627Y42105D01*
G01X27565Y42085D01*
G01X27509Y42053D01*
G01X27461Y42009D01*
G01X27423Y41953D01*
G01X27394Y41887D01*
G01X27376Y41811D01*
G01X27370Y41726D01*
G01X27376Y41641D01*
G01X27393Y41565D01*
G01X27422Y41500D01*
G01X27460Y41445D01*
G01X27507Y41401D01*
G01X27561Y41369D01*
G01X27623Y41349D01*
G01X27690Y41342D01*
G01X27757Y41349D01*
G01X27817Y41370D01*
G01X27869Y41404D01*
G01X27916Y41449D01*
G01X27867Y41502D01*
G01X27830Y41465D01*
G01X27789Y41438D01*
G01X27743Y41421D01*
G01X27692Y41416D01*
G01X27640Y41421D01*
G01X27594Y41438D01*
G01X27553Y41465D01*
G01X27519Y41501D01*
G01X27492Y41546D01*
G01X27472Y41599D01*
G01X27460Y41660D01*
G01X27456Y41728D01*
G01X27460Y41796D01*
G01X27473Y41857D01*
G01X27493Y41910D01*
G01X27521Y41955D01*
G01X27555Y41990D01*
G01X27596Y42017D01*
G01X27643Y42033D01*
G01X27695Y42038D01*
G01X27741Y42033D01*
G01X27783Y42019D01*
G01X27819Y41996D01*
G01X27850Y41967D01*
G01X27898Y42020D01*
G01X27861Y42055D01*
G01X27814Y42084D01*
G01X27759Y42105D01*
G37*

%LPD*%
G36*
G01X29668Y42099D02*
G01X29579Y42099D01*
G01X29264Y41617D01*
G01X29264Y41563D01*
G01X29590Y41563D01*
G01X29590Y41355D01*
G01X29668Y41355D01*
G01X29668Y41563D01*
G01X29770Y41563D01*
G01X29770Y41629D01*
G01X29668Y41629D01*
G01X29668Y42099D01*
G37*

%LPC*%
G36*
G01X29595Y42003D02*
G01X29590Y42003D01*
G01X29576Y41976D01*
G01X29546Y41921D01*
G01X29531Y41893D01*
G01X29351Y41629D01*
G01X29590Y41629D01*
G01X29590Y41901D01*
G01X29591Y41936D01*
G01X29593Y41971D01*
G01X29595Y42003D01*
G37*

%LPD*%
G36*
G01X28142Y42099D02*
G01X28055Y42099D01*
G01X28055Y41355D01*
G01X28142Y41355D01*
G01X28142Y41710D01*
G01X28500Y41710D01*
G01X28500Y41355D01*
G01X28584Y41355D01*
G01X28584Y42099D01*
G01X28500Y42099D01*
G01X28500Y41784D01*
G01X28142Y41784D01*
G01X28142Y42099D01*
G37*

%LPD*%

%LPD*%
G36*
G01X5011Y32480D02*
G01X4947Y32487D01*
G01X4855Y32473D01*
G01X4783Y32432D01*
G01X4735Y32371D01*
G01X4718Y32294D01*
G01X4732Y32222D01*
G01X4767Y32169D01*
G01X4816Y32131D01*
G01X4868Y32103D01*
G01X4977Y32055D01*
G01X5027Y32032D01*
G01X5067Y32006D01*
G01X5094Y31969D01*
G01X5104Y31918D01*
G01X5093Y31866D01*
G01X5060Y31826D01*
G01X5008Y31800D01*
G01X4939Y31791D01*
G01X4881Y31797D01*
G01X4826Y31816D01*
G01X4775Y31846D01*
G01X4731Y31885D01*
G01X4680Y31826D01*
G01X4732Y31782D01*
G01X4794Y31747D01*
G01X4863Y31725D01*
G01X4939Y31717D01*
G01X4994Y31721D01*
G01X5042Y31733D01*
G01X5085Y31752D01*
G01X5121Y31778D01*
G01X5150Y31808D01*
G01X5170Y31844D01*
G01X5184Y31883D01*
G01X5188Y31925D01*
G01X5176Y31997D01*
G01X5143Y32051D01*
G01X5094Y32092D01*
G01X5033Y32124D01*
G01X4927Y32169D01*
G01X4883Y32190D01*
G01X4843Y32215D01*
G01X4813Y32250D01*
G01X4802Y32299D01*
G01X4812Y32347D01*
G01X4842Y32383D01*
G01X4888Y32405D01*
G01X4947Y32413D01*
G01X4997Y32408D01*
G01X5042Y32394D01*
G01X5083Y32371D01*
G01X5120Y32342D01*
G01X5163Y32395D01*
G01X5120Y32432D01*
G01X5069Y32461D01*
G01X5011Y32480D01*
G37*

%LPD*%
G36*
G01X4101Y32474D02*
G01X4017Y32474D01*
G01X4017Y32032D01*
G01X4022Y31951D01*
G01X4038Y31883D01*
G01X4061Y31829D01*
G01X4093Y31786D01*
G01X4132Y31755D01*
G01X4177Y31733D01*
G01X4226Y31721D01*
G01X4279Y31717D01*
G01X4332Y31721D01*
G01X4382Y31733D01*
G01X4427Y31755D01*
G01X4466Y31786D01*
G01X4498Y31829D01*
G01X4522Y31883D01*
G01X4537Y31951D01*
G01X4543Y32032D01*
G01X4543Y32474D01*
G01X4462Y32474D01*
G01X4462Y32030D01*
G01X4458Y31967D01*
G01X4447Y31915D01*
G01X4430Y31874D01*
G01X4408Y31842D01*
G01X4381Y31818D01*
G01X4350Y31802D01*
G01X4315Y31794D01*
G01X4279Y31791D01*
G01X4209Y31802D01*
G01X4152Y31842D01*
G01X4115Y31915D01*
G01X4101Y32030D01*
G01X4101Y32474D01*
G37*

%LPD*%
G36*
G01X5551Y32474D02*
G01X5338Y32474D01*
G01X5338Y31730D01*
G01X5569Y31730D01*
G01X5629Y31733D01*
G01X5683Y31744D01*
G01X5731Y31760D01*
G01X5772Y31784D01*
G01X5805Y31815D01*
G01X5830Y31852D01*
G01X5846Y31896D01*
G01X5851Y31948D01*
G01X5839Y32016D01*
G01X5808Y32069D01*
G01X5759Y32105D01*
G01X5696Y32126D01*
G01X5696Y32131D01*
G01X5743Y32156D01*
G01X5778Y32192D01*
G01X5798Y32238D01*
G01X5805Y32291D01*
G01X5800Y32336D01*
G01X5787Y32374D01*
G01X5765Y32406D01*
G01X5735Y32431D01*
G01X5699Y32450D01*
G01X5655Y32464D01*
G01X5606Y32471D01*
G01X5551Y32474D01*
G37*

%LPC*%
G36*
G01X5557Y32090D02*
G01X5422Y32090D01*
G01X5422Y31796D01*
G01X5557Y31796D01*
G01X5645Y31805D01*
G01X5711Y31833D01*
G01X5753Y31882D01*
G01X5767Y31951D01*
G01X5753Y32012D01*
G01X5712Y32056D01*
G01X5646Y32082D01*
G01X5557Y32090D01*
G37*
G36*
G01X5541Y32405D02*
G01X5422Y32405D01*
G01X5422Y32154D01*
G01X5536Y32154D01*
G01X5621Y32163D01*
G01X5679Y32188D01*
G01X5713Y32228D01*
G01X5724Y32281D01*
G01X5712Y32339D01*
G01X5677Y32378D01*
G01X5620Y32399D01*
G01X5541Y32405D01*
G37*

%LPD*%

%LPD*%
G36*
G01X56303Y31394D02*
G01X56252Y31400D01*
G01X56210Y31395D01*
G01X56171Y31382D01*
G01X56136Y31362D01*
G01X56105Y31334D01*
G01X56079Y31299D01*
G01X56060Y31258D01*
G01X56048Y31212D01*
G01X56044Y31161D01*
G01X56047Y31106D01*
G01X56058Y31059D01*
G01X56075Y31019D01*
G01X56098Y30986D01*
G01X56127Y30960D01*
G01X56162Y30942D01*
G01X56202Y30931D01*
G01X56247Y30927D01*
G01X56294Y30934D01*
G01X56340Y30952D01*
G01X56382Y30982D01*
G01X56420Y31021D01*
G01X56414Y30938D01*
G01X56401Y30869D01*
G01X56383Y30813D01*
G01X56359Y30769D01*
G01X56331Y30737D01*
G01X56300Y30715D01*
G01X56265Y30703D01*
G01X56229Y30699D01*
G01X56193Y30702D01*
G01X56159Y30713D01*
G01X56129Y30731D01*
G01X56102Y30754D01*
G01X56056Y30704D01*
G01X56089Y30674D01*
G01X56129Y30651D01*
G01X56177Y30636D01*
G01X56232Y30630D01*
G01X56282Y30636D01*
G01X56331Y30652D01*
G01X56376Y30682D01*
G01X56416Y30725D01*
G01X56450Y30782D01*
G01X56475Y30855D01*
G01X56492Y30943D01*
G01X56498Y31049D01*
G01X56493Y31131D01*
G01X56479Y31203D01*
G01X56458Y31262D01*
G01X56428Y31312D01*
G01X56392Y31350D01*
G01X56350Y31378D01*
G01X56303Y31394D01*
G37*

%LPC*%
G36*
G01X56319Y31317D02*
G01X56252Y31334D01*
G01X56201Y31321D01*
G01X56159Y31285D01*
G01X56132Y31230D01*
G01X56122Y31161D01*
G01X56130Y31090D01*
G01X56155Y31035D01*
G01X56198Y31000D01*
G01X56260Y30988D01*
G01X56299Y30994D01*
G01X56339Y31012D01*
G01X56380Y31044D01*
G01X56420Y31090D01*
G01X56404Y31194D01*
G01X56371Y31271D01*
G01X56319Y31317D01*
G37*

%LPD*%
G36*
G01X54101Y31393D02*
G01X54037Y31400D01*
G01X53946Y31385D01*
G01X53873Y31345D01*
G01X53825Y31284D01*
G01X53808Y31207D01*
G01X53822Y31135D01*
G01X53857Y31082D01*
G01X53906Y31044D01*
G01X53958Y31016D01*
G01X54067Y30968D01*
G01X54117Y30945D01*
G01X54157Y30918D01*
G01X54184Y30882D01*
G01X54194Y30831D01*
G01X54183Y30779D01*
G01X54150Y30739D01*
G01X54098Y30713D01*
G01X54029Y30704D01*
G01X53971Y30710D01*
G01X53916Y30729D01*
G01X53865Y30758D01*
G01X53821Y30798D01*
G01X53770Y30739D01*
G01X53822Y30694D01*
G01X53884Y30660D01*
G01X53953Y30638D01*
G01X54029Y30630D01*
G01X54084Y30634D01*
G01X54133Y30646D01*
G01X54175Y30665D01*
G01X54211Y30690D01*
G01X54240Y30721D01*
G01X54261Y30756D01*
G01X54274Y30796D01*
G01X54278Y30838D01*
G01X54266Y30910D01*
G01X54233Y30964D01*
G01X54184Y31005D01*
G01X54123Y31036D01*
G01X54017Y31082D01*
G01X53974Y31102D01*
G01X53933Y31128D01*
G01X53903Y31163D01*
G01X53892Y31212D01*
G01X53902Y31259D01*
G01X53932Y31295D01*
G01X53978Y31318D01*
G01X54037Y31326D01*
G01X54087Y31321D01*
G01X54133Y31307D01*
G01X54173Y31284D01*
G01X54210Y31255D01*
G01X54253Y31308D01*
G01X54210Y31345D01*
G01X54159Y31374D01*
G01X54101Y31393D01*
G37*

%LPD*%
G36*
G01X55779Y31387D02*
G01X55716Y31387D01*
G01X55685Y31371D01*
G01X55650Y31357D01*
G01X55611Y31345D01*
G01X55566Y31336D01*
G01X55566Y31283D01*
G01X55696Y31283D01*
G01X55696Y30711D01*
G01X55531Y30711D01*
G01X55531Y30643D01*
G01X55929Y30643D01*
G01X55929Y30711D01*
G01X55779Y30711D01*
G01X55779Y31387D01*
G37*

%LPD*%
G36*
G01X55221Y31387D02*
G01X55157Y31387D01*
G01X55126Y31371D01*
G01X55092Y31357D01*
G01X55052Y31345D01*
G01X55007Y31336D01*
G01X55007Y31283D01*
G01X55139Y31283D01*
G01X55139Y30711D01*
G01X54972Y30711D01*
G01X54972Y30643D01*
G01X55373Y30643D01*
G01X55373Y30711D01*
G01X55221Y30711D01*
G01X55221Y31387D01*
G37*

%LPD*%
G36*
G01X54662Y31387D02*
G01X54601Y31387D01*
G01X54569Y31371D01*
G01X54534Y31357D01*
G01X54494Y31345D01*
G01X54448Y31336D01*
G01X54448Y31283D01*
G01X54581Y31283D01*
G01X54581Y30711D01*
G01X54413Y30711D01*
G01X54413Y30643D01*
G01X54814Y30643D01*
G01X54814Y30711D01*
G01X54662Y30711D01*
G01X54662Y31387D01*
G37*

%LPD*%
G36*
G01X53112Y31387D02*
G01X53008Y31387D01*
G01X53008Y30643D01*
G01X53085Y30643D01*
G01X53085Y31072D01*
G01X53083Y31123D01*
G01X53081Y31179D01*
G01X53078Y31235D01*
G01X53074Y31288D01*
G01X53079Y31288D01*
G01X53138Y31120D01*
G01X53285Y30719D01*
G01X53341Y30719D01*
G01X53488Y31120D01*
G01X53547Y31288D01*
G01X53549Y31288D01*
G01X53546Y31235D01*
G01X53540Y31123D01*
G01X53539Y31072D01*
G01X53539Y30643D01*
G01X53618Y30643D01*
G01X53618Y31387D01*
G01X53514Y31387D01*
G01X53369Y30981D01*
G01X53356Y30940D01*
G01X53344Y30900D01*
G01X53331Y30861D01*
G01X53318Y30820D01*
G01X53313Y30820D01*
G01X53299Y30861D01*
G01X53286Y30900D01*
G01X53260Y30981D01*
G01X53112Y31387D01*
G37*

%LPD*%
G36*
G01X52645Y31387D02*
G01X52554Y31387D01*
G01X52300Y30643D01*
G01X52383Y30643D01*
G01X52460Y30876D01*
G01X52737Y30876D01*
G01X52813Y30643D01*
G01X52902Y30643D01*
G01X52645Y31387D01*
G37*

%LPC*%
G36*
G01X52599Y31316D02*
G01X52597Y31316D01*
G01X52578Y31251D01*
G01X52559Y31188D01*
G01X52521Y31064D01*
G01X52483Y30942D01*
G01X52716Y30942D01*
G01X52678Y31064D01*
G01X52657Y31127D01*
G01X52637Y31189D01*
G01X52618Y31252D01*
G01X52599Y31316D01*
G37*

%LPD*%

%LPD*%
G36*
G01X51468Y8228D02*
G01X51402Y8235D01*
G01X51311Y8220D01*
G01X51238Y8180D01*
G01X51191Y8119D01*
G01X51173Y8042D01*
G01X51187Y7970D01*
G01X51223Y7917D01*
G01X51272Y7879D01*
G01X51326Y7851D01*
G01X51432Y7803D01*
G01X51482Y7780D01*
G01X51522Y7753D01*
G01X51549Y7717D01*
G01X51559Y7666D01*
G01X51548Y7614D01*
G01X51516Y7574D01*
G01X51465Y7548D01*
G01X51397Y7539D01*
G01X51337Y7545D01*
G01X51282Y7564D01*
G01X51232Y7593D01*
G01X51189Y7633D01*
G01X51138Y7574D01*
G01X51190Y7529D01*
G01X51251Y7495D01*
G01X51319Y7473D01*
G01X51394Y7465D01*
G01X51450Y7469D01*
G01X51499Y7481D01*
G01X51542Y7500D01*
G01X51578Y7526D01*
G01X51607Y7556D01*
G01X51628Y7592D01*
G01X51641Y7631D01*
G01X51646Y7673D01*
G01X51633Y7745D01*
G01X51600Y7799D01*
G01X51550Y7840D01*
G01X51491Y7872D01*
G01X51382Y7917D01*
G01X51339Y7938D01*
G01X51300Y7963D01*
G01X51271Y7998D01*
G01X51260Y8047D01*
G01X51270Y8095D01*
G01X51298Y8131D01*
G01X51343Y8153D01*
G01X51402Y8161D01*
G01X51452Y8156D01*
G01X51498Y8142D01*
G01X51538Y8119D01*
G01X51575Y8090D01*
G01X51620Y8143D01*
G01X51578Y8180D01*
G01X51526Y8209D01*
G01X51468Y8228D01*
G37*

%LPD*%
G36*
G01X52855Y8222D02*
G01X52316Y8222D01*
G01X52316Y8151D01*
G01X52542Y8151D01*
G01X52542Y7478D01*
G01X52626Y7478D01*
G01X52626Y8151D01*
G01X52855Y8151D01*
G01X52855Y8222D01*
G37*

%LPD*%
G36*
G01X52217Y8222D02*
G01X51793Y8222D01*
G01X51793Y7478D01*
G01X52228Y7478D01*
G01X52228Y7549D01*
G01X51877Y7549D01*
G01X51877Y7833D01*
G01X52164Y7833D01*
G01X52164Y7905D01*
G01X51877Y7905D01*
G01X51877Y8151D01*
G01X52217Y8151D01*
G01X52217Y8222D01*
G37*

%LPD*%
G36*
G01X51021Y8222D02*
G01X50599Y8222D01*
G01X50599Y7478D01*
G01X51034Y7478D01*
G01X51034Y7549D01*
G01X50683Y7549D01*
G01X50683Y7833D01*
G01X50968Y7833D01*
G01X50968Y7905D01*
G01X50683Y7905D01*
G01X50683Y8151D01*
G01X51021Y8151D01*
G01X51021Y8222D01*
G37*

%LPD*%
G36*
G01X50188Y8222D02*
G01X49962Y8222D01*
G01X49962Y7478D01*
G01X50046Y7478D01*
G01X50046Y7798D01*
G01X50185Y7798D01*
G01X50371Y7478D01*
G01X50465Y7478D01*
G01X50274Y7808D01*
G01X50345Y7834D01*
G01X50400Y7877D01*
G01X50434Y7938D01*
G01X50447Y8016D01*
G01X50442Y8069D01*
G01X50428Y8113D01*
G01X50405Y8148D01*
G01X50374Y8176D01*
G01X50337Y8197D01*
G01X50293Y8211D01*
G01X50243Y8220D01*
G01X50188Y8222D01*
G37*

%LPC*%
G36*
G01X50175Y8154D02*
G01X50046Y8154D01*
G01X50046Y7869D01*
G01X50175Y7869D01*
G01X50254Y7878D01*
G01X50312Y7905D01*
G01X50348Y7950D01*
G01X50361Y8016D01*
G01X50348Y8080D01*
G01X50312Y8123D01*
G01X50254Y8146D01*
G01X50175Y8154D01*
G37*

%LPD*%
G54D36*
G01X52681Y14797D02*
G01X52653Y14853D01*
G01X52572Y14934D01*
G01X53143Y14934D01*
G01X52572Y15277D02*
G01X52600Y15196D01*
G01X52681Y15143D01*
G01X52816Y15115D01*
G01X52899Y15115D01*
G01X53034Y15143D01*
G01X53118Y15196D01*
G01X53143Y15277D01*
G01X53143Y15333D01*
G01X53118Y15414D01*
G01X53034Y15468D01*
G01X52899Y15496D01*
G01X52816Y15496D01*
G01X52681Y15468D01*
G01X52600Y15414D01*
G01X52572Y15333D01*
G01X52572Y15277D01*
G01X52572Y15676D02*
G01X53143Y15676D01*
G01X52572Y16057D02*
G01X52953Y15676D01*
G01X52816Y15813D02*
G01X53143Y16057D01*
G01X52753Y10865D02*
G01X52725Y10921D01*
G01X52644Y11002D01*
G01X53216Y11002D01*
G01X52644Y11345D02*
G01X52672Y11264D01*
G01X52753Y11208D01*
G01X52888Y11182D01*
G01X52972Y11182D01*
G01X53106Y11208D01*
G01X53190Y11264D01*
G01X53216Y11345D01*
G01X53216Y11401D01*
G01X53190Y11482D01*
G01X53106Y11535D01*
G01X52972Y11563D01*
G01X52888Y11563D01*
G01X52753Y11535D01*
G01X52672Y11482D01*
G01X52644Y11401D01*
G01X52644Y11345D01*
G01X52644Y11744D02*
G01X53216Y11744D01*
G01X52644Y12125D02*
G01X53025Y11744D01*
G01X52888Y11878D02*
G01X53216Y12125D01*
G01X18832Y20814D02*
G01X18804Y20868D01*
G01X18723Y20949D01*
G01X19297Y20949D01*
G01X18723Y21294D02*
G01X18751Y21210D01*
G01X18832Y21157D01*
G01X18970Y21129D01*
G01X19051Y21129D01*
G01X19188Y21157D01*
G01X19269Y21210D01*
G01X19297Y21294D01*
G01X19297Y21348D01*
G01X19269Y21429D01*
G01X19188Y21485D01*
G01X19051Y21510D01*
G01X18970Y21510D01*
G01X18832Y21485D01*
G01X18751Y21429D01*
G01X18723Y21348D01*
G01X18723Y21294D01*
G01X18723Y21690D02*
G01X19297Y21690D01*
G01X18914Y21965D02*
G01X19188Y21690D01*
G01X19079Y21800D02*
G01X19297Y21990D01*
G01X45286Y26953D02*
G01X45258Y27006D01*
G01X45205Y27059D01*
G01X45149Y27087D01*
G01X45040Y27087D01*
G01X44987Y27059D01*
G01X44933Y27006D01*
G01X44905Y26953D01*
G01X44877Y26869D01*
G01X44877Y26734D01*
G01X44905Y26650D01*
G01X44933Y26597D01*
G01X44987Y26541D01*
G01X45040Y26516D01*
G01X45149Y26516D01*
G01X45205Y26541D01*
G01X45258Y26597D01*
G01X45286Y26650D01*
G01X40108Y60362D02*
G01X40083Y60418D01*
G01X40027Y60472D01*
G01X39974Y60500D01*
G01X39865Y60500D01*
G01X39809Y60472D01*
G01X39755Y60418D01*
G01X39727Y60362D01*
G01X39699Y60281D01*
G01X39699Y60144D01*
G01X39727Y60063D01*
G01X39755Y60007D01*
G01X39809Y59953D01*
G01X39865Y59925D01*
G01X39974Y59925D01*
G01X40027Y59953D01*
G01X40083Y60007D01*
G01X40108Y60063D01*
G01X23137Y47900D02*
G01X23081Y47874D01*
G01X23027Y47818D01*
G01X23000Y47765D01*
G01X23000Y47656D01*
G01X23027Y47600D01*
G01X23081Y47546D01*
G01X23137Y47519D01*
G01X23218Y47491D01*
G01X23355Y47491D01*
G01X23436Y47519D01*
G01X23492Y47546D01*
G01X23546Y47600D01*
G01X23574Y47656D01*
G01X23574Y47765D01*
G01X23546Y47818D01*
G01X23492Y47874D01*
G01X23436Y47900D01*

%LPD*%
G36*
G01X18043Y34011D02*
G01X17512Y34011D01*
G01X17512Y33927D01*
G01X18036Y33927D01*
G01X18109Y33919D01*
G01X18158Y33896D01*
G01X18186Y33857D01*
G01X18196Y33802D01*
G01X18191Y33763D01*
G01X18176Y33728D01*
G01X18150Y33697D01*
G01X18112Y33670D01*
G01X18155Y33609D01*
G01X18205Y33646D01*
G01X18240Y33692D01*
G01X18262Y33746D01*
G01X18269Y33810D01*
G01X18265Y33860D01*
G01X18251Y33902D01*
G01X18230Y33936D01*
G01X18203Y33964D01*
G01X18169Y33985D01*
G01X18131Y34000D01*
G01X18088Y34008D01*
G01X18043Y34011D01*
G37*

%LPD*%
G36*
G01X18105Y34606D02*
G01X18058Y34610D01*
G01X17988Y34598D01*
G01X17932Y34564D01*
G01X17892Y34514D01*
G01X17868Y34453D01*
G01X17865Y34453D01*
G01X17838Y34507D01*
G01X17799Y34548D01*
G01X17748Y34575D01*
G01X17685Y34585D01*
G01X17605Y34569D01*
G01X17547Y34525D01*
G01X17512Y34458D01*
G01X17500Y34374D01*
G01X17506Y34314D01*
G01X17525Y34260D01*
G01X17553Y34212D01*
G01X17589Y34168D01*
G01X17642Y34214D01*
G01X17612Y34248D01*
G01X17589Y34286D01*
G01X17572Y34327D01*
G01X17566Y34371D01*
G01X17576Y34425D01*
G01X17601Y34466D01*
G01X17640Y34492D01*
G01X17690Y34501D01*
G01X17749Y34490D01*
G01X17795Y34455D01*
G01X17826Y34391D01*
G01X17837Y34293D01*
G01X17903Y34293D01*
G01X17914Y34402D01*
G01X17945Y34475D01*
G01X17993Y34514D01*
G01X18056Y34526D01*
G01X18116Y34515D01*
G01X18162Y34483D01*
G01X18190Y34434D01*
G01X18201Y34371D01*
G01X18194Y34311D01*
G01X18174Y34260D01*
G01X18147Y34219D01*
G01X18114Y34183D01*
G01X18168Y34140D01*
G01X18206Y34181D01*
G01X18238Y34234D01*
G01X18261Y34298D01*
G01X18269Y34376D01*
G01X18265Y34424D01*
G01X18255Y34468D01*
G01X18237Y34508D01*
G01X18213Y34542D01*
G01X18183Y34571D01*
G01X18147Y34592D01*
G01X18105Y34606D01*
G37*

%LPD*%
G36*
G01X17964Y34976D02*
G01X17512Y35199D01*
G01X17512Y35113D01*
G01X17728Y35011D01*
G01X17769Y34994D01*
G01X17809Y34976D01*
G01X17891Y34938D01*
G01X17891Y34933D01*
G01X17850Y34913D01*
G01X17809Y34894D01*
G01X17769Y34875D01*
G01X17728Y34857D01*
G01X17512Y34757D01*
G01X17512Y34669D01*
G01X17964Y34892D01*
G01X18257Y34892D01*
G01X18257Y34976D01*
G01X17964Y34976D01*
G37*

%LPD*%
G01X24909Y29121D02*
G01X24881Y29177D01*
G01X24799Y29258D01*
G01X25373Y29258D01*
G01X24799Y29601D02*
G01X24827Y29520D01*
G01X24909Y29466D01*
G01X25046Y29439D01*
G01X25127Y29439D01*
G01X25264Y29466D01*
G01X25346Y29520D01*
G01X25373Y29601D01*
G01X25373Y29657D01*
G01X25346Y29738D01*
G01X25264Y29792D01*
G01X25127Y29820D01*
G01X25046Y29820D01*
G01X24909Y29792D01*
G01X24827Y29738D01*
G01X24799Y29657D01*
G01X24799Y29601D01*
G01X24799Y30000D02*
G01X25373Y30000D01*
G01X24990Y30272D02*
G01X25264Y30000D01*
G01X25155Y30109D02*
G01X25373Y30300D01*
G01X24801Y32946D02*
G01X24773Y32999D01*
G01X24692Y33080D01*
G01X25264Y33080D01*
G01X24692Y33423D02*
G01X24720Y33342D01*
G01X24801Y33289D01*
G01X24939Y33261D01*
G01X25020Y33261D01*
G01X25154Y33289D01*
G01X25238Y33342D01*
G01X25264Y33423D01*
G01X25264Y33479D01*
G01X25238Y33560D01*
G01X25154Y33616D01*
G01X25020Y33642D01*
G01X24939Y33642D01*
G01X24801Y33616D01*
G01X24720Y33560D01*
G01X24692Y33479D01*
G01X24692Y33423D01*
G01X24692Y33822D02*
G01X25264Y33822D01*
G01X24692Y34206D02*
G01X25073Y33822D01*
G01X24939Y33959D02*
G01X25264Y34206D01*
G01X33074Y31200D02*
G01X32799Y30816D01*
G01X33208Y30816D01*
G01X33074Y31200D02*
G01X33074Y30626D01*
G01X33770Y31200D02*
G01X33498Y30626D01*
G01X33389Y31200D02*
G01X33770Y31200D01*
G01X34115Y31200D02*
G01X34034Y31172D01*
G01X33978Y31090D01*
G01X33950Y30953D01*
G01X33950Y30872D01*
G01X33978Y30735D01*
G01X34034Y30653D01*
G01X34115Y30626D01*
G01X34168Y30626D01*
G01X34250Y30653D01*
G01X34306Y30735D01*
G01X34334Y30872D01*
G01X34334Y30953D01*
G01X34306Y31090D01*
G01X34250Y31172D01*
G01X34168Y31200D01*
G01X34115Y31200D01*
G01X30072Y31200D02*
G01X29800Y30816D01*
G01X30209Y30816D01*
G01X30072Y31200D02*
G01X30072Y30626D01*
G01X30771Y31200D02*
G01X30499Y30626D01*
G01X30390Y31200D02*
G01X30771Y31200D01*
G01X31114Y31200D02*
G01X31032Y31172D01*
G01X30979Y31090D01*
G01X30951Y30953D01*
G01X30951Y30872D01*
G01X30979Y30735D01*
G01X31032Y30654D01*
G01X31114Y30626D01*
G01X31169Y30626D01*
G01X31251Y30654D01*
G01X31307Y30735D01*
G01X31332Y30872D01*
G01X31332Y30953D01*
G01X31307Y31090D01*
G01X31251Y31172D01*
G01X31169Y31200D01*
G01X31114Y31200D01*
G01X18882Y24897D02*
G01X18854Y24953D01*
G01X18772Y25034D01*
G01X19344Y25034D01*
G01X18772Y25377D02*
G01X18798Y25296D01*
G01X18882Y25242D01*
G01X19016Y25214D01*
G01X19100Y25214D01*
G01X19235Y25242D01*
G01X19316Y25296D01*
G01X19344Y25377D01*
G01X19344Y25433D01*
G01X19316Y25514D01*
G01X19235Y25570D01*
G01X19100Y25595D01*
G01X19016Y25595D01*
G01X18882Y25570D01*
G01X18798Y25514D01*
G01X18772Y25433D01*
G01X18772Y25377D01*
G01X18772Y25776D02*
G01X19344Y25776D01*
G01X18772Y26159D02*
G01X19153Y25776D01*
G01X19016Y25913D02*
G01X19344Y26159D01*

%LPD*%
G36*
G01X48324Y20514D02*
G01X48300Y20519D01*
G01X48281Y20517D01*
G01X48266Y20509D01*
G01X48255Y20495D01*
G01X48251Y20476D01*
G01X48255Y20456D01*
G01X48266Y20442D01*
G01X48281Y20433D01*
G01X48300Y20430D01*
G01X48310Y20430D01*
G01X48303Y20398D01*
G01X48288Y20369D01*
G01X48265Y20345D01*
G01X48234Y20326D01*
G01X48251Y20291D01*
G01X48295Y20317D01*
G01X48328Y20351D01*
G01X48348Y20393D01*
G01X48356Y20443D01*
G01X48352Y20476D01*
G01X48341Y20499D01*
G01X48324Y20514D01*
G37*

%LPD*%
G36*
G01X48660Y20990D02*
G01X48597Y20999D01*
G01X48552Y20995D01*
G01X48512Y20981D01*
G01X48476Y20960D01*
G01X48444Y20933D01*
G01X48477Y20893D01*
G01X48502Y20916D01*
G01X48530Y20933D01*
G01X48561Y20944D01*
G01X48594Y20949D01*
G01X48635Y20942D01*
G01X48667Y20923D01*
G01X48687Y20894D01*
G01X48693Y20857D01*
G01X48685Y20813D01*
G01X48659Y20778D01*
G01X48610Y20754D01*
G01X48536Y20745D01*
G01X48536Y20697D01*
G01X48619Y20689D01*
G01X48674Y20666D01*
G01X48704Y20628D01*
G01X48714Y20580D01*
G01X48705Y20536D01*
G01X48680Y20503D01*
G01X48643Y20481D01*
G01X48597Y20474D01*
G01X48552Y20479D01*
G01X48514Y20493D01*
G01X48482Y20513D01*
G01X48455Y20537D01*
G01X48424Y20496D01*
G01X48455Y20468D01*
G01X48493Y20444D01*
G01X48541Y20427D01*
G01X48599Y20420D01*
G01X48668Y20431D01*
G01X48724Y20463D01*
G01X48761Y20514D01*
G01X48775Y20580D01*
G01X48765Y20633D01*
G01X48740Y20674D01*
G01X48702Y20705D01*
G01X48655Y20722D01*
G01X48655Y20725D01*
G01X48697Y20745D01*
G01X48729Y20774D01*
G01X48750Y20813D01*
G01X48757Y20860D01*
G01X48745Y20919D01*
G01X48711Y20963D01*
G01X48660Y20990D01*
G37*

%LPD*%
G36*
G01X48038Y20990D02*
G01X47975Y20999D01*
G01X47928Y20995D01*
G01X47888Y20981D01*
G01X47852Y20960D01*
G01X47820Y20933D01*
G01X47853Y20893D01*
G01X47879Y20916D01*
G01X47907Y20933D01*
G01X47939Y20944D01*
G01X47972Y20949D01*
G01X48012Y20942D01*
G01X48042Y20923D01*
G01X48062Y20894D01*
G01X48069Y20857D01*
G01X48060Y20813D01*
G01X48034Y20778D01*
G01X47985Y20754D01*
G01X47911Y20745D01*
G01X47911Y20697D01*
G01X47994Y20689D01*
G01X48049Y20666D01*
G01X48079Y20628D01*
G01X48089Y20580D01*
G01X48080Y20536D01*
G01X48056Y20503D01*
G01X48019Y20481D01*
G01X47972Y20474D01*
G01X47927Y20479D01*
G01X47889Y20493D01*
G01X47857Y20513D01*
G01X47830Y20537D01*
G01X47799Y20496D01*
G01X47830Y20468D01*
G01X47868Y20444D01*
G01X47916Y20427D01*
G01X47975Y20420D01*
G01X48044Y20431D01*
G01X48100Y20463D01*
G01X48137Y20514D01*
G01X48150Y20580D01*
G01X48141Y20633D01*
G01X48115Y20674D01*
G01X48078Y20705D01*
G01X48033Y20722D01*
G01X48033Y20725D01*
G01X48073Y20745D01*
G01X48105Y20774D01*
G01X48125Y20813D01*
G01X48132Y20860D01*
G01X48120Y20919D01*
G01X48088Y20963D01*
G01X48038Y20990D01*
G37*

%LPD*%
G36*
G01X48886Y20989D02*
G01X48820Y20989D01*
G01X48998Y20430D01*
G01X49072Y20430D01*
G01X49250Y20989D01*
G01X49186Y20989D01*
G01X49095Y20682D01*
G01X49079Y20634D01*
G01X49066Y20588D01*
G01X49053Y20544D01*
G01X49039Y20496D01*
G01X49034Y20496D01*
G01X49020Y20544D01*
G01X49007Y20588D01*
G01X48995Y20634D01*
G01X48980Y20682D01*
G01X48886Y20989D01*
G37*

%LPD*%

%LPD*%
G36*
G01X44606Y20994D02*
G01X44553Y20999D01*
G01X44500Y20994D01*
G01X44452Y20980D01*
G01X44408Y20955D01*
G01X44371Y20922D01*
G01X44341Y20880D01*
G01X44318Y20830D01*
G01X44304Y20773D01*
G01X44299Y20710D01*
G01X44304Y20646D01*
G01X44317Y20589D01*
G01X44339Y20539D01*
G01X44369Y20497D01*
G01X44405Y20464D01*
G01X44447Y20441D01*
G01X44495Y20425D01*
G01X44548Y20420D01*
G01X44601Y20425D01*
G01X44648Y20439D01*
G01X44687Y20459D01*
G01X44718Y20484D01*
G01X44718Y20717D01*
G01X44538Y20717D01*
G01X44538Y20664D01*
G01X44660Y20664D01*
G01X44660Y20512D01*
G01X44640Y20497D01*
G01X44614Y20486D01*
G01X44585Y20479D01*
G01X44553Y20476D01*
G01X44473Y20493D01*
G01X44414Y20540D01*
G01X44378Y20615D01*
G01X44365Y20712D01*
G01X44379Y20809D01*
G01X44417Y20881D01*
G01X44476Y20928D01*
G01X44553Y20943D01*
G01X44594Y20939D01*
G01X44627Y20928D01*
G01X44655Y20910D01*
G01X44678Y20890D01*
G01X44711Y20931D01*
G01X44684Y20956D01*
G01X44649Y20977D01*
G01X44606Y20994D01*
G37*

%LPD*%
G36*
G01X45539Y20989D02*
G01X45402Y20989D01*
G01X45402Y20430D01*
G01X45541Y20430D01*
G01X45601Y20435D01*
G01X45652Y20450D01*
G01X45696Y20474D01*
G01X45733Y20506D01*
G01X45761Y20546D01*
G01X45782Y20594D01*
G01X45794Y20650D01*
G01X45798Y20712D01*
G01X45794Y20775D01*
G01X45782Y20830D01*
G01X45761Y20877D01*
G01X45732Y20917D01*
G01X45696Y20948D01*
G01X45651Y20971D01*
G01X45599Y20985D01*
G01X45539Y20989D01*
G37*

%LPC*%
G36*
G01X45534Y20936D02*
G01X45465Y20936D01*
G01X45465Y20484D01*
G01X45534Y20484D01*
G01X45581Y20488D01*
G01X45622Y20499D01*
G01X45657Y20519D01*
G01X45684Y20545D01*
G01X45706Y20578D01*
G01X45722Y20617D01*
G01X45731Y20662D01*
G01X45734Y20712D01*
G01X45731Y20763D01*
G01X45722Y20807D01*
G01X45706Y20846D01*
G01X45684Y20877D01*
G01X45657Y20903D01*
G01X45622Y20921D01*
G01X45581Y20932D01*
G01X45534Y20936D01*
G37*

%LPD*%
G36*
G01X44919Y20989D02*
G01X44853Y20989D01*
G01X44853Y20430D01*
G01X44914Y20430D01*
G01X44914Y20735D01*
G01X44913Y20779D01*
G01X44911Y20822D01*
G01X44909Y20864D01*
G01X44906Y20905D01*
G01X44909Y20905D01*
G01X44970Y20791D01*
G01X45181Y20430D01*
G01X45244Y20430D01*
G01X45244Y20989D01*
G01X45186Y20989D01*
G01X45186Y20687D01*
G01X45187Y20643D01*
G01X45189Y20599D01*
G01X45191Y20556D01*
G01X45193Y20514D01*
G01X45191Y20514D01*
G01X45130Y20628D01*
G01X44919Y20989D01*
G37*

%LPD*%
G54D12*
G75*
G01X23916Y39555D02*
G03X23919Y39555I2J-200D01*
G01*
G54D10*
G75*
G01X51349Y4001D02*
G03X51349Y4001I-250J0D01*
G01*
M00*
M02*
